<svg width="48" height="48" viewBox="0 0 48 48" fill="none" xmlns="http://www.w3.org/2000/svg">
<g clip-path="url(#clip0_12_184)">
<path d="M31.4321 24.2005C31.2165 25.9621 30.4243 27.6411 29.1193 28.9462C27.5331 30.5333 25.3159 31.2805 22.5315 31.168C20.5786 31.0902 19.6768 31.6012 19.5286 31.694C18.9305 32.218 18.1711 32.5049 17.3696 32.5049C16.493 32.5049 15.6689 32.1637 15.0492 31.544C13.9795 30.4743 13.807 28.8243 14.5374 27.5671L15.0614 26.7365C15.2396 26.3024 15.4805 25.4455 15.4242 24.0608C15.3127 21.2755 16.0599 19.0592 17.6461 17.473C18.9455 16.1745 20.6068 15.3701 22.403 15.1554C22.6571 13.9339 23.2074 12.7911 24.0015 11.8311H5.15949C3.08948 11.8311 1.40479 13.5148 1.40479 15.5848V34.2027H40.5738V15.7161L35.814 21.5492C34.6947 22.9171 33.1403 23.848 31.4321 24.2005Z" fill="#028EED"/>
<path d="M1.40476 38.2154C1.40476 40.2845 3.08945 41.9682 5.15947 41.9682H15.8301V45.1876H13.4649C12.6883 45.1876 12.0587 45.8172 12.0587 46.5939C12.0587 47.3705 12.6883 48.0001 13.4649 48.0001H28.5131C29.2897 48.0001 29.9194 47.3705 29.9194 46.5939C29.9194 45.8172 29.2897 45.1876 28.5131 45.1876H26.148V41.9682H36.8189C38.8889 41.9682 40.5736 40.2845 40.5736 38.2154V37.0154H1.40466V38.2154H1.40476Z" fill="#028EED"/>
<path d="M17.072 28.8596C17.0717 28.8597 17.0714 28.86 17.0712 28.8603C17.071 28.8604 17.0709 28.8605 17.0708 28.8607L17.0705 28.8611C17.0703 28.8612 17.0702 28.8613 17.07 28.8615C17.0699 28.8618 17.0698 28.8618 17.0695 28.862L17.0694 28.8621C17.0693 28.8623 17.0691 28.8624 17.069 28.8626C17.069 28.8626 17.069 28.8626 17.0689 28.8627C17.0688 28.8627 17.0686 28.8629 17.0685 28.8631C17.0685 28.8631 17.0685 28.8631 17.0684 28.8632C17.0682 28.8633 17.0681 28.8635 17.0679 28.8637C17.0679 28.8637 17.0679 28.8637 17.0678 28.8638L17.0674 28.8642C16.8896 29.0477 16.8914 29.3405 17.0726 29.5218C17.1642 29.6133 17.2841 29.6591 17.4041 29.6591C17.523 29.6591 17.6419 29.6142 17.7331 29.5242C17.7618 29.4971 19.1818 28.1843 22.68 28.3249C24.6481 28.4042 26.1571 27.9327 27.1656 26.9244C29.2321 24.8578 29.2321 21.4954 27.1656 19.4289C26.1645 18.4278 24.8335 17.8765 23.4178 17.8765C22.0021 17.8765 20.6711 18.4277 19.6701 19.4289C18.6617 20.4372 18.1904 21.9464 18.2695 23.9144C18.4109 27.4317 17.0833 28.8478 17.0726 28.8589C17.0722 28.8592 17.0721 28.8594 17.072 28.8596Z" fill="#028EED"/>
<path d="M31.3102 21.3091C32.2271 21.0344 33.053 20.4907 33.669 19.7379L35.4658 17.5359L29.0649 11.135L26.8721 12.926C26.1174 13.541 25.5718 14.366 25.2961 15.2829C26.7455 15.6232 28.0749 16.361 29.154 17.4401C30.2583 18.5444 30.9774 19.8898 31.3102 21.3091Z" fill="#028EED"/>
<path d="M45.7505 0.844431C44.7033 -0.202757 43.0477 -0.286194 41.9002 0.651306L31.2542 9.3469L37.2529 15.3457L45.9446 4.6939C46.8812 3.54724 46.7977 1.89162 45.7505 0.844431Z" fill="#028EED"/>
</g>
<defs>
<clipPath id="clip0_12_184">
<rect width="48" height="48" fill="white"/>
</clipPath>
</defs>
</svg>
