<svg width="25" height="25" viewBox="0 0 25 25" fill="none" xmlns="http://www.w3.org/2000/svg">
<rect x="0.491022" y="0.20141" width="23.656" height="23.656" rx="11.828" stroke="#028EED" stroke-width="0.40282"/>
<path d="M8.77405 6.44531C7.64436 6.44531 6.73474 7.35494 6.73474 8.48462V15.5746C6.73474 16.7043 7.64436 17.6139 8.77405 17.6139H12.6167V13.2477H11.4622V11.6757H12.6167V10.3327C12.6167 9.27752 13.2989 8.30872 14.8703 8.30872C15.5066 8.30872 15.9771 8.3698 15.9771 8.3698L15.9401 9.83777C15.9401 9.83777 15.4602 9.83324 14.9366 9.83324C14.37 9.83324 14.2791 10.0943 14.2791 10.5278V11.6757H15.9851L15.9108 13.2477H14.2791V17.6139H15.864C16.9937 17.6139 17.9033 16.7043 17.9033 15.5746V8.48463C17.9033 7.35495 16.9937 6.44532 15.864 6.44532H8.77404L8.77405 6.44531Z" fill="#028EED"/>
</svg>
