<svg width="25" height="24" viewBox="0 0 25 24" fill="none" xmlns="http://www.w3.org/2000/svg">
<rect x="0.886041" y="0.20141" width="23.6044" height="23.6044" rx="11.8022" stroke="#028EED" stroke-width="0.40282"/>
<path d="M14.467 12.0038C14.467 12.3556 14.3627 12.6995 14.1672 12.992C13.9718 13.2845 13.694 13.5125 13.369 13.6471C13.0439 13.7818 12.6863 13.817 12.3413 13.7484C11.9962 13.6797 11.6793 13.5103 11.4305 13.2616C11.1818 13.0128 11.0124 12.6959 10.9437 12.3508C10.8751 12.0058 10.9103 11.6482 11.0449 11.3231C11.1796 10.9981 11.4076 10.7203 11.7001 10.5249C11.9926 10.3294 12.3365 10.2251 12.6883 10.2251C13.1596 10.2266 13.6111 10.4144 13.9444 10.7477C14.2777 11.081 14.4655 11.5325 14.467 12.0038ZM18.2468 9.55808V14.4496C18.2468 15.2751 17.9188 16.0669 17.3351 16.6506C16.7513 17.2344 15.9596 17.5623 15.134 17.5623H10.2425C9.41697 17.5623 8.62523 17.2344 8.04147 16.6506C7.45771 16.0669 7.12976 15.2751 7.12976 14.4496V9.55808C7.12976 8.73252 7.45771 7.94078 8.04147 7.35702C8.62523 6.77326 9.41697 6.44531 10.2425 6.44531H15.134C15.9596 6.44531 16.7513 6.77326 17.3351 7.35702C17.9188 7.94078 18.2468 8.73252 18.2468 9.55808ZM15.3564 12.0038C15.3564 11.4761 15.1999 10.9603 14.9067 10.5215C14.6135 10.0827 14.1968 9.74077 13.7093 9.53883C13.2218 9.33689 12.6853 9.28406 12.1678 9.387C11.6502 9.48995 11.1748 9.74406 10.8016 10.1172C10.4285 10.4903 10.1744 10.9657 10.0715 11.4833C9.9685 12.0009 10.0213 12.5373 10.2233 13.0249C10.4252 13.5124 10.7672 13.9291 11.206 14.2223C11.6447 14.5154 12.1606 14.6719 12.6883 14.6719C13.3959 14.6719 14.0745 14.3908 14.5749 13.8904C15.0753 13.3901 15.3564 12.7114 15.3564 12.0038ZM16.2457 9.1134C16.2457 8.98147 16.2066 8.85251 16.1333 8.74282C16.06 8.63313 15.9558 8.54764 15.834 8.49715C15.7121 8.44666 15.578 8.43346 15.4486 8.45919C15.3192 8.48493 15.2003 8.54846 15.107 8.64174C15.0138 8.73503 14.9502 8.85388 14.9245 8.98327C14.8988 9.11266 14.912 9.24677 14.9624 9.36866C15.0129 9.49054 15.0984 9.59471 15.2081 9.66801C15.3178 9.7413 15.4468 9.78042 15.5787 9.78042C15.7556 9.78042 15.9253 9.71014 16.0504 9.58505C16.1754 9.45996 16.2457 9.2903 16.2457 9.1134Z" fill="#028EED"/>
</svg>
