<svg width="24" height="24" viewBox="0 0 24 24" fill="none" xmlns="http://www.w3.org/2000/svg">
<rect x="0.20141" y="0.20141" width="23.5507" height="23.5507" rx="11.7753" stroke="#028EED" stroke-width="0.40282"/>
<path fill-rule="evenodd" clip-rule="evenodd" d="M6.44513 7.3696C6.44513 7.12446 6.54251 6.88937 6.71585 6.71603C6.88918 6.54269 7.12428 6.44531 7.36941 6.44531H16.5831C16.7046 6.44512 16.8249 6.46888 16.9372 6.51525C17.0495 6.56161 17.1515 6.62967 17.2374 6.71553C17.3234 6.80138 17.3916 6.90334 17.4381 7.01558C17.4845 7.12781 17.5084 7.24812 17.5084 7.3696V16.5833C17.5085 16.7048 17.4847 16.8251 17.4383 16.9374C17.3918 17.0497 17.3237 17.1517 17.2378 17.2377C17.1519 17.3236 17.0499 17.3918 16.9377 17.4382C16.8254 17.4847 16.7051 17.5086 16.5836 17.5086H7.36941C7.24799 17.5086 7.12776 17.4846 7.01559 17.4381C6.90342 17.3917 6.8015 17.3235 6.71567 17.2377C6.62983 17.1518 6.56176 17.0498 6.51534 16.9376C6.46892 16.8254 6.44506 16.7052 6.44513 16.5838V7.3696ZM10.8242 10.6634H12.3222V11.4157C12.5385 10.9833 13.0916 10.594 13.9229 10.594C15.5165 10.594 15.8941 11.4555 15.8941 13.036V15.9637H14.2814V13.396C14.2814 12.4959 14.0652 11.988 13.516 11.988C12.7542 11.988 12.4374 12.5356 12.4374 13.396V15.9637H10.8242V10.6634ZM8.05835 15.8948H9.67157V10.594H8.05835V15.8948ZM9.90239 8.86515C9.90543 9.00327 9.88086 9.14061 9.8301 9.26911C9.77934 9.39761 9.70343 9.51468 9.60682 9.61344C9.51021 9.7122 9.39484 9.79067 9.26749 9.84425C9.14014 9.89782 9.00337 9.92542 8.86521 9.92542C8.72705 9.92542 8.59029 9.89782 8.46294 9.84425C8.33559 9.79067 8.22022 9.7122 8.12361 9.61344C8.027 9.51468 7.95108 9.39761 7.90033 9.26911C7.84957 9.14061 7.82499 9.00327 7.82803 8.86515C7.834 8.59402 7.9459 8.33602 8.13976 8.14638C8.33362 7.95674 8.59403 7.85056 8.86521 7.85056C9.1364 7.85056 9.39681 7.95674 9.59067 8.14638C9.78453 8.33602 9.89642 8.59402 9.90239 8.86515Z" fill="#028EED"/>
</svg>
