<svg width="76" height="72" viewBox="0 0 76 72" fill="none" xmlns="http://www.w3.org/2000/svg">
<g clip-path="url(#clip0_324_411)">
<path d="M45.8166 55.409V55.4004H45.808L45.8166 55.409Z" fill="url(#paint0_linear_324_411)"/>
<path d="M62.0024 35.4658C64.3983 32.8113 64.881 29.631 64.4414 26.2094C64.407 25.1752 63.9933 24.2185 63.8037 23.2101C63.795 23.1498 63.7864 23.0809 63.7778 23.0205C63.2348 22.1931 62.8728 21.2623 62.2523 20.4694C61.9076 20.0212 61.7007 19.8575 61.1664 20.297C60.0632 21.202 60.0373 21.4261 60.3734 22.8137C61.2698 26.58 61.6318 30.3636 60.8647 34.2247C60.2873 37.1637 59.2358 39.9044 57.7448 42.4814C57.1759 43.4725 56.6157 44.524 55.8056 45.2997C55.1764 45.903 55.1937 46.4718 55.1937 47.1613C55.1764 49.7296 52.6339 51.1776 50.3845 49.9796C48.9451 49.2125 48.5918 47.0493 49.0572 45.8944C49.6433 44.4464 51.2118 43.507 52.6856 43.981C53.7371 44.3171 54.1939 43.9638 54.7713 43.1709C58.5032 38.0342 59.7615 32.32 58.9858 26.0801C58.891 25.2872 58.417 24.6236 58.3567 23.8134C58.3222 23.2963 57.9516 23.5204 57.7275 23.7186C57.0725 24.2788 56.4347 24.8477 55.7883 25.4165C55.7883 25.7612 55.7883 26.0888 55.7883 26.4249V26.4421C56.4089 28.4416 56.3744 30.4412 55.8056 32.4407C55.7883 32.57 55.7711 32.6992 55.7539 32.8199C55.728 33.2422 55.6763 33.6559 55.3919 33.992C55.3574 34.0437 55.3057 34.0696 55.2454 34.061C55.0127 34.9228 54.892 35.7071 55.3488 36.6207C56.1158 38.1634 55.3919 40.1285 53.9095 40.7663C52.5391 41.361 50.6861 41.2144 49.695 39.4562C48.5918 37.4912 49.8415 34.8884 52.1168 34.8194C53.2545 34.7849 53.6078 34.2764 53.8147 33.3543C53.9181 32.9061 54.0818 32.4665 54.2111 32.0184C54.3318 30.4153 54.3318 30.4153 52.6684 30.4153C51.0481 30.4153 49.4192 30.3981 47.7989 30.3894C47.4627 30.3981 47.1266 30.4584 46.7991 30.4153C46.0665 30.3377 45.6011 30.5532 45.2133 31.2599C44.5066 32.5613 43.1276 33.0698 41.8262 32.6734C40.3179 32.2166 39.3785 31.01 39.3785 29.5276C39.3785 28.1917 40.3265 26.8644 41.5504 26.4852C42.9811 26.037 44.5496 26.5714 45.265 27.89C45.627 28.5451 46.0665 28.6571 46.7129 28.6485C48.8417 28.6226 50.9791 28.6399 53.1079 28.6399C54.3576 28.6399 54.3576 28.6399 54.1939 27.4074C54.168 27.2092 54.1939 27.0109 54.1939 26.8127C54.1077 26.287 53.9439 25.8043 53.401 25.5716C52.4271 25.0631 51.4445 24.5546 50.4706 24.0375C50.0656 23.8221 49.7553 23.8738 49.3761 24.1496C48.1695 25.0373 46.8939 25.0114 45.4201 23.9858C44.2135 23.1412 44.2911 21.8139 44.429 20.5556C44.5324 19.5989 45.9028 18.5992 47.1352 18.4182C48.9021 18.1682 50.6603 19.5127 50.7292 21.2882C50.7551 22.0552 51.0739 22.4258 51.6945 22.7275C52.384 23.0636 53.0562 23.4256 53.7026 23.8307C54.2542 24.1668 54.6852 24.2616 55.1592 23.6928C55.6246 23.1326 56.1331 22.5724 56.7278 22.1759C57.6844 21.5381 57.5638 20.8659 57.1156 19.9781C56.4606 18.6681 55.7452 17.4012 54.9609 16.1687C54.7196 15.7895 54.4352 15.6344 53.987 15.6344C51.4187 15.6516 48.8503 15.643 46.2906 15.6344C45.808 15.6344 45.5666 15.7895 45.3081 16.2463C44.248 18.0476 42.033 18.4699 40.5161 17.2891C39.3268 16.3583 39.1285 15.1172 39.4388 13.7814C39.7146 12.5747 40.6454 11.8766 41.8175 11.6439C43.2138 11.3595 44.4376 11.7991 45.1702 13.0488C45.5322 13.6693 45.9459 13.8503 46.6009 13.8417C48.3677 13.8158 50.1345 13.8331 51.9013 13.8158C52.1513 13.8158 52.496 13.971 52.6339 13.6865C52.8063 13.3246 52.3667 13.2125 52.1944 12.9971C51.4273 11.9973 50.5137 11.5577 49.1865 11.9714C48.1609 12.299 46.6095 11.5664 45.8855 10.0323C45.3684 8.9463 45.5408 7.61042 46.4027 6.69684C47.4197 5.6109 48.9624 5.17135 50.0397 5.65399C51.4532 6.28315 52.0737 7.41219 51.8927 9.13591C51.841 9.64441 51.9617 10.015 52.3581 10.3598C55.0299 12.6609 57.2018 15.3499 58.7445 18.5388C58.9083 18.8836 59.1065 19.349 59.5891 19.2197C60.2355 19.056 60.6234 18.5216 60.8216 17.9097C61.175 16.841 60.9595 15.7292 60.9681 14.6346L60.9078 14.0054C60.4165 13.4969 60.2614 12.7988 59.9684 12.1869C59.141 10.4546 57.6931 9.29967 56.271 8.1103C56.2279 8.12753 56.202 8.11892 56.1762 8.08444C56.1417 8.08444 56.1072 8.08444 56.0727 8.08444C54.7282 8.09306 53.7026 7.82588 53.7112 6.10216C53.7112 5.54195 53.22 4.98174 52.9528 4.41291L52.9183 4.34396C52.4443 4.05954 52.0479 3.69756 51.729 3.24077C49.876 2.12897 47.9626 1.3102 45.7304 1.99107C45.0926 2.1893 45.0237 1.70666 44.9461 1.27573C44.6703 1.24125 44.4462 1.12059 44.3428 0.844796C44.0067 0.836177 43.774 0.646567 43.5671 0.413864C43.4378 0.396627 43.3086 0.37939 43.1793 0.362153C43.0586 0.388009 42.9811 0.362153 42.9638 0.224255C42.7311 0.241492 42.507 0.207017 42.3347 0.0260263C42.2743 0.0605008 42.2226 0.0518822 42.1795 0.00878906C41.5159 0.00878906 40.8609 0.0260263 40.1972 0.0260263C40.1024 0.198399 39.9559 0.207017 39.7835 0.172543C39.6887 0.388009 39.4991 0.43972 39.2923 0.456958C38.8527 1.00855 38.7838 1.63771 38.7838 2.3272C38.7924 20.297 38.7838 38.2582 38.801 56.2281C38.801 56.8314 38.4304 57.5984 39.1716 58.0552C40.0249 58.581 40.9471 58.512 41.8779 58.2535C42.6018 58.0552 43.1276 57.5123 43.7826 57.1934C43.7998 57.1244 43.8515 57.09 43.9205 57.0813C44.1015 54.4009 43.9722 51.7205 44.0067 49.0315C44.0239 47.7732 44.0067 46.5149 44.0067 45.2566C43.7998 45.1187 43.593 44.9894 43.3861 44.8515C42.4467 44.4981 41.9813 43.7742 41.8262 42.8261C41.74 42.4297 41.7314 42.0332 41.8262 41.6368C42.1192 40.0078 43.2827 39.0167 44.9116 38.9995C46.5061 38.9822 47.773 40.1026 48.1091 41.8436C48.3677 43.1795 47.3766 44.6533 45.8166 45.248C45.7993 45.7823 45.7821 46.308 45.7649 46.8424C45.7649 47.3768 45.7649 47.9111 45.7649 48.4455C45.7649 49.5056 45.7649 50.5743 45.7649 51.6344C45.7649 52.1687 45.7649 52.7031 45.7649 53.2374C45.7649 53.3753 45.7649 53.5132 45.7649 53.6425C45.7649 54.1769 45.7821 54.7026 45.7907 55.2369C45.8424 55.28 45.8597 55.3404 45.8424 55.4093C47.6782 55.6765 49.3416 55.0215 51.0136 54.4182C51.3497 54.2027 51.6772 53.9872 52.0134 53.7804C54.2542 52.3756 56.2279 50.7553 56.7536 47.9456C56.814 47.6008 57.0294 47.3681 57.3655 47.2216C59.0806 46.4718 60.1838 45.0842 61.0543 43.507C62.192 41.4471 62.5195 39.258 61.9076 36.9482C61.7783 36.4742 61.5456 36.0002 62.0282 35.4658H62.0024Z" fill="url(#paint1_linear_324_411)"/>
<path d="M36.7326 14.7811C36.7326 10.5838 36.7326 6.38655 36.7412 2.18927C36.7412 1.71525 36.6981 1.25846 36.5774 0.810294C36.4568 0.698252 36.3533 0.560354 36.2068 0.491405C34.5348 -0.370457 32.9404 0.00876215 31.3718 0.810294C31.0874 1.12918 30.7771 1.42222 30.5271 1.75834C30.2858 2.08585 30.0014 2.12894 29.6567 2.03414C27.209 1.35327 25.2181 2.2927 23.3823 3.78372C23.253 3.88714 23.1496 4.01642 22.9772 4.01642C23.0031 4.30084 22.8135 4.39564 22.5894 4.43874C22.6066 4.49907 22.5894 4.55078 22.5549 4.59387C22.124 5.51606 21.5896 6.4124 21.6069 7.48111C21.6069 7.98099 21.2794 7.98099 20.926 7.96375C19.5729 7.8948 18.6507 8.67048 17.7199 9.52373C16.203 10.9027 15.2118 12.5833 14.7464 14.5398C14.35 16.229 14.281 17.901 15.7634 19.2369C16.1858 19.6161 16.3064 19.573 16.5133 19.099C18.0646 15.6085 20.3916 12.704 23.2875 10.2391C23.6753 9.90295 23.5719 9.56682 23.5461 9.17036C23.3909 6.67096 25.2784 4.93 27.502 5.49883C28.6828 5.80048 29.7256 6.77438 29.7773 7.73967C29.8463 9.20484 29.9756 10.6614 28.2777 11.4974C27.3124 11.9714 26.4505 12.2214 25.468 11.7129C24.9595 11.4457 24.6234 11.8077 24.339 12.1007C23.8391 12.6092 22.7445 12.9798 22.9428 13.6176C23.1755 14.3502 24.1752 13.721 24.8302 13.7641C26.2265 13.8589 27.6485 13.652 29.0189 13.833C30.1479 13.9882 30.3289 13.0487 30.7685 12.5661C32.0871 11.1354 34.3711 11.3681 35.4656 12.5661C36.474 13.6607 36.474 16.2204 35.0347 17.3063C33.2679 18.6336 30.846 18.0389 30.0704 15.8929C30.0359 15.7981 29.9669 15.7205 29.9066 15.6429L23.7443 15.5999C23.5805 15.6171 23.4082 15.6774 23.253 15.6429C21.1242 15.1344 20.202 16.5479 19.3746 18.082C18.9954 18.7801 18.7024 19.5213 18.3059 20.2022C17.8664 20.9606 17.9526 21.5553 18.6852 22.0638C18.9265 22.2276 19.1506 22.443 19.2367 22.7447C19.2885 22.7447 19.3229 22.7706 19.3316 22.8223C19.728 22.9688 20.0383 23.2532 20.2279 23.5807C20.6674 24.3305 21.2104 24.1754 21.7879 23.8479C22.1929 23.6238 22.5635 23.3221 22.9858 23.1325C24.0201 22.6671 24.7699 22.1586 24.8561 20.7797C24.9337 19.5041 25.9851 18.6939 27.2521 18.4095C28.519 18.1251 29.648 18.5474 30.4927 19.4869C31.4493 20.5469 31.3459 22.5378 30.3892 23.6152C29.2516 24.8907 27.5882 25.2096 26.2178 24.2616C25.5887 23.822 25.1491 23.9254 24.5975 24.2616C23.9167 24.6667 23.2186 25.0459 22.5204 25.4337C21.6758 25.8991 21.0208 27.3643 21.2276 28.2779C21.2966 28.5881 21.5293 28.5967 21.762 28.5967C24.2959 28.5967 26.8298 28.5967 29.3636 28.5967C29.8032 28.5967 29.9756 28.3554 30.1738 28.0021C31.1304 26.2697 33.2334 25.7871 34.8882 26.8989C36.3016 27.8469 36.586 30.0705 35.4915 31.5271C34.3969 32.9664 32.1905 33.1388 30.7857 31.8804C30.665 31.7684 30.4841 31.6564 30.4496 31.5185C30.1479 30.1912 29.1223 30.4239 28.1915 30.4325C27.0883 30.4325 25.9937 30.4325 24.8906 30.4411C23.9684 30.4497 23.0634 30.3291 22.1326 30.398C21.3828 30.4497 21.2018 30.6825 21.3397 31.3461C21.5207 32.2166 21.6586 33.1043 21.874 33.9748C21.9947 34.4746 22.236 34.7677 22.9169 34.7246C24.3734 34.6384 25.7955 35.6037 26.1058 36.8792C26.4333 38.2496 26.2523 39.4993 25.1146 40.3956C23.9253 41.3351 22.5722 41.3782 21.219 40.5249C19.9607 39.732 19.4522 37.8014 20.2451 36.4655C20.5726 35.9053 20.6416 35.4399 20.383 34.8797C19.2367 32.3372 19.0644 29.6827 19.5815 26.9851C19.7625 26.0456 19.7539 25.313 18.9179 24.727C18.711 24.5891 18.4955 24.3909 18.4611 24.0978C18.2025 24.0806 18.056 23.891 17.8836 23.7445C17.3924 23.3308 17.1079 23.5204 16.9873 24.0806C16.0565 28.3209 16.1082 32.5355 17.4785 36.681C18.2887 39.1373 19.4608 41.4126 21.0294 43.4811C21.4517 44.0327 21.8223 44.3171 22.598 44.0241C24.4941 43.3001 27.1917 45.0066 26.5626 47.2302C26.5626 47.4888 26.5626 47.7559 26.5626 48.0145C26.123 49.721 24.7096 50.6518 22.9686 50.3932C21.4517 50.1605 20.2365 48.7126 20.3658 47.1182C20.4261 46.308 20.1848 45.7564 19.6935 45.1445C16.4702 41.1368 14.7895 36.5604 14.2897 31.4323C14.057 29.0277 14.5913 26.7265 14.6172 24.3736C14.6172 24.2185 14.7034 24.0547 14.7809 23.9168C15.5566 22.4603 15.6428 21.1158 14.1604 20.0126C13.4881 19.9781 13.2468 20.5297 12.9882 20.9606C10.5406 25.0373 10.2992 29.269 12.2212 33.6042C12.4539 34.1385 12.8159 34.6729 13.2554 35.0521C13.9794 35.6726 13.8846 36.3621 13.7036 37.1292C12.7469 41.1196 14.5224 45.1273 18.1163 47.1096C18.4094 47.2733 18.7972 47.3681 18.8317 47.7473C18.9696 49.2987 19.9435 50.4191 20.7622 51.6257C21.3397 52.1084 21.8913 52.6255 22.5032 53.0564C24.5027 54.4612 26.6401 55.4869 29.174 55.4438C29.8204 55.4265 30.0186 55.2283 29.8118 54.625C29.8118 51.6257 29.8118 48.6264 29.8118 45.6271C29.7946 45.4979 29.7859 45.3772 29.7687 45.2479C28.2605 44.7136 27.2435 43.3174 27.4244 41.9642C27.6399 40.3008 28.8207 39.0684 30.5185 39.0253C31.9406 38.9908 33.2937 39.8096 33.7419 41.1627C34.1901 42.5072 33.5695 44.2309 32.1905 45.0066C31.6217 45.3255 31.57 45.6702 31.57 46.1874C31.5872 49.1177 31.6562 52.0566 31.5528 54.9784C31.5097 56.3315 31.7424 57.383 33.0265 58.0121H33.1127L33.1817 58.0552C34.3193 58.5034 35.457 58.512 36.5947 58.0466H36.6033C36.8015 57.676 36.7757 57.2709 36.7757 56.8745C36.767 42.852 36.7498 28.8208 36.7498 14.7983L36.7326 14.7811Z" fill="url(#paint2_linear_324_411)"/>
<path d="M43.4293 41.447C43.369 41.628 43.3086 41.809 43.2483 41.9986C43.4982 42.4296 43.3259 43.0329 43.7999 43.3776C43.8688 43.3949 43.9378 43.3949 43.9981 43.4207C44.7652 43.7655 45.4805 43.7741 46.0321 43.0329C46.463 42.464 46.4803 41.8177 46.0407 41.2833C45.4719 40.5766 44.7135 40.6714 43.955 40.9816C43.8085 41.042 43.6878 41.1454 43.5499 41.2316C43.593 41.3522 43.5327 41.4126 43.4207 41.4557L43.4293 41.447Z" fill="url(#paint3_linear_324_411)"/>
<path d="M52.0651 45.6356C51.2722 45.6183 50.5655 46.3337 50.5741 47.1697C50.5741 47.9626 51.255 48.6348 52.0393 48.6262C52.8494 48.6262 53.5131 47.9195 53.5648 47.0232C53.5906 46.5405 52.634 45.6528 52.0651 45.6356Z" fill="url(#paint4_linear_324_411)"/>
<path d="M48.859 7.22252C47.9972 7.20528 47.368 7.82582 47.3594 8.72216C47.3594 9.54093 48.0402 10.1615 48.928 10.1529C49.7036 10.1442 50.2294 9.56678 50.2294 8.72216C50.2294 7.85168 49.6778 7.24837 48.8504 7.23114L48.859 7.22252Z" fill="url(#paint5_linear_324_411)"/>
<path d="M41.0333 14.6777C40.9816 15.4102 41.5763 16.1084 42.3088 16.1773C43.0673 16.2463 43.8602 15.6257 43.9378 14.8931C44.0239 14.1347 43.3086 13.2987 42.5329 13.247C41.7917 13.1953 41.085 13.8589 41.0247 14.669L41.0333 14.6777Z" fill="url(#paint6_linear_324_411)"/>
<path d="M46.1872 21.5295C46.1872 22.4431 46.6612 22.9516 47.5662 22.986C48.4108 23.0205 48.9969 22.4344 48.9969 21.5726C48.9969 20.7797 48.3505 20.0729 47.6006 20.0471C46.8594 20.0212 46.1872 20.7279 46.1872 21.5209V21.5295Z" fill="url(#paint7_linear_324_411)"/>
<path d="M34.4917 14.7032C34.4831 13.9275 33.8195 13.2983 33.0093 13.2983C32.3888 13.2983 31.5614 14.0826 31.57 14.6515C31.5873 15.4616 32.3371 16.2114 33.1041 16.1942C33.9143 16.1683 34.509 15.5392 34.4917 14.7118V14.7032Z" fill="url(#paint8_linear_324_411)"/>
<path d="M26.7867 10.1442C27.4676 10.127 28.3811 9.29957 28.3467 8.71351C28.3036 8.00678 27.4589 7.22249 26.735 7.21387C25.9162 7.21387 25.3129 7.91198 25.356 8.82555C25.3905 9.58399 26.0196 10.1614 26.7953 10.1442H26.7867Z" fill="url(#paint9_linear_324_411)"/>
<path d="M25.1319 47.411C25.1492 47.3507 25.1664 47.2904 25.1923 47.2387C25.1147 46.5492 24.6321 46.1269 24.1063 45.7993C23.4858 45.4115 22.5291 45.8338 22.2102 46.5664C21.9258 47.23 22.2361 48.2126 22.8135 48.4539C23.9512 48.9193 24.5286 48.1522 25.1319 47.411Z" fill="url(#paint10_linear_324_411)"/>
<path d="M32.1044 42.171C32.0958 41.4384 31.4407 40.8092 30.6823 40.8006C29.8808 40.7834 29.1999 41.4384 29.2085 42.2141C29.2085 42.9553 29.8722 43.6017 30.6134 43.6103C31.4149 43.6103 32.113 42.938 32.1044 42.171Z" fill="url(#paint11_linear_324_411)"/>
<path d="M41.1798 29.2258C40.9902 30.0187 41.5935 30.8202 42.4036 30.984C42.9208 31.0874 43.2741 30.7168 43.7051 30.5961C43.7309 30.5358 43.7568 30.4755 43.7912 30.4151C43.8602 30.1997 43.9722 29.9842 43.9981 29.7601C44.1101 28.881 43.5499 28.1484 42.6967 28.0881C41.8779 28.0278 41.3608 28.4587 41.1798 29.2258Z" fill="url(#paint12_linear_324_411)"/>
<path d="M52.5046 36.4482C51.7031 36.4137 51.0395 37.0256 51.005 37.8271C50.9705 38.7407 51.5221 39.3268 52.4443 39.3526C53.2286 39.3785 53.9267 38.7149 53.9353 37.9306C53.944 37.1463 53.3062 36.4826 52.496 36.4482H52.5046Z" fill="url(#paint13_linear_324_411)"/>
<path d="M24.5372 37.9736C24.5631 37.2669 23.8133 36.4567 23.1065 36.4481C22.3309 36.4309 21.6241 37.017 21.6069 37.6978C21.581 38.5769 22.2705 39.3698 23.0721 39.3871C23.7271 39.3871 24.5028 38.6459 24.5286 37.9822L24.5372 37.9736Z" fill="url(#paint14_linear_324_411)"/>
<path d="M29.3723 21.5984C29.3723 20.7797 28.7431 20.116 27.9588 20.1074C27.1917 20.1074 26.554 20.7969 26.5712 21.6157C26.5884 22.4689 27.0969 22.8826 27.8812 22.9602C28.7 23.0378 29.3809 22.3827 29.3809 21.5984H29.3723Z" fill="url(#paint15_linear_324_411)"/>
<path d="M34.3883 29.5535C34.4056 28.7089 33.8626 28.2176 32.9146 28.209C32.113 28.209 31.5528 28.7606 31.5442 29.5621C31.5442 30.2861 32.2768 31.0014 33.018 30.9928C33.7247 30.9928 34.3797 30.2947 34.3883 29.5535Z" fill="url(#paint16_linear_324_411)"/>
<path d="M0 71.8968V64.0107H1.83577L5.10223 69.3715H4.13694L7.31721 64.0107H9.15298L9.17884 71.8968H7.1276L7.10175 67.1307H7.44649L5.06775 71.1211H4.07661L1.62892 67.1307H2.05985V71.8968H0Z" fill="#1E1E1E"/>
<path d="M12.566 72.0001C12.0747 72.0001 11.661 71.9139 11.3249 71.7501C10.9888 71.5864 10.7302 71.3623 10.5492 71.0779C10.3682 70.7935 10.282 70.4746 10.282 70.1212C10.282 69.742 10.3768 69.4231 10.5665 69.1473C10.7561 68.8715 11.0491 68.6647 11.4542 68.5181C11.8593 68.3716 12.3678 68.3027 12.9969 68.3027H14.4362V69.4145H13.2899C12.9452 69.4145 12.7039 69.4748 12.566 69.5869C12.4281 69.6989 12.3591 69.854 12.3591 70.035C12.3591 70.216 12.4281 70.3711 12.5746 70.4832C12.7211 70.5952 12.9107 70.6556 13.1607 70.6556C13.3934 70.6556 13.6088 70.5952 13.7984 70.4832C13.9881 70.3711 14.1346 70.1902 14.2208 69.9488L14.5138 70.7331C14.4017 71.1554 14.1777 71.4743 13.8588 71.6812C13.5399 71.888 13.1003 72.0001 12.566 72.0001ZM14.3673 71.8966V70.759L14.2208 70.4746V68.3802C14.2208 68.0441 14.1173 67.7856 13.9105 67.596C13.7036 67.415 13.3761 67.3202 12.928 67.3202C12.6349 67.3202 12.3419 67.3632 12.0402 67.4581C11.7386 67.5529 11.4887 67.6821 11.2732 67.8459L10.5492 66.3893C10.894 66.1653 11.3077 65.9929 11.7903 65.8636C12.2729 65.7429 12.7556 65.6826 13.2382 65.6826C14.2294 65.6826 14.9964 65.9067 15.5394 66.3635C16.0824 66.8203 16.3582 67.527 16.3582 68.5009V71.888H14.3673V71.8966Z" fill="#1E1E1E"/>
<path d="M20.995 72.0002C20.271 72.0002 19.6418 71.8623 19.1075 71.5865C18.5731 71.3107 18.1508 70.9401 17.8578 70.4575C17.5647 69.9835 17.4096 69.4405 17.4096 68.8286C17.4096 68.2167 17.5561 67.6823 17.8405 67.1997C18.1336 66.7256 18.53 66.355 19.0385 66.0879C19.547 65.8207 20.1245 65.6914 20.7623 65.6914C21.3656 65.6914 21.9085 65.8121 22.4084 66.0534C22.8997 66.2947 23.2961 66.6567 23.5892 67.1307C23.8822 67.6047 24.0287 68.1822 24.0287 68.8544C24.0287 68.932 24.0287 69.0182 24.0201 69.113C24.0115 69.2078 24.0029 69.3026 23.9942 69.3802H19.1592V68.2511H22.8566L22.0464 68.57C22.0464 68.2942 22.0033 68.0529 21.8913 67.8461C21.7792 67.6392 21.6327 67.4841 21.4431 67.372C21.2535 67.26 21.0294 67.1997 20.7709 67.1997C20.5123 67.1997 20.2882 67.26 20.0986 67.372C19.909 67.4841 19.7625 67.6478 19.6504 67.8547C19.547 68.0615 19.4953 68.3028 19.4953 68.5786V68.9061C19.4953 69.2078 19.5556 69.4664 19.6849 69.6818C19.8056 69.8973 19.9866 70.0697 20.2193 70.1817C20.452 70.2938 20.7278 70.3541 21.0553 70.3541C21.3569 70.3541 21.6155 70.311 21.831 70.2248C22.0464 70.1386 22.2533 70.0093 22.4687 69.8283L23.5978 71.0005C23.3047 71.328 22.9428 71.5693 22.5205 71.7417C22.0895 71.9141 21.5896 71.9916 21.0036 71.9916L20.995 72.0002Z" fill="#1E1E1E"/>
<path d="M27.2435 72.0002C26.7264 72.0002 26.2179 71.9399 25.7266 71.8192C25.2353 71.6986 24.8389 71.5521 24.5372 71.3711L25.175 69.9059C25.4594 70.0783 25.7956 70.2162 26.1748 70.3196C26.554 70.423 26.9332 70.4747 27.3038 70.4747C27.6744 70.4747 27.9157 70.4403 28.0536 70.3627C28.1915 70.2851 28.2605 70.1817 28.2605 70.061C28.2605 69.9404 28.1915 69.8542 28.0623 69.7939C27.933 69.7335 27.7606 69.6904 27.5451 69.6646C27.3297 69.6301 27.097 69.6043 26.8384 69.5612C26.5798 69.5267 26.3299 69.475 26.0627 69.406C25.7956 69.3371 25.5628 69.2423 25.356 69.113C25.1405 68.9837 24.9682 68.8027 24.8475 68.5786C24.7182 68.3546 24.6579 68.0701 24.6579 67.7254C24.6579 67.3376 24.7699 66.9842 25.0026 66.6825C25.2353 66.3809 25.5715 66.1396 26.011 65.9586C26.4506 65.7862 26.9935 65.6914 27.6313 65.6914C28.0623 65.6914 28.4932 65.7345 28.9327 65.8207C29.3723 65.9069 29.7429 66.0361 30.0445 66.2085L29.4068 67.6651C29.1051 67.4927 28.8035 67.372 28.5018 67.3117C28.2001 67.2514 27.9157 67.2169 27.6486 67.2169C27.2866 67.2169 27.0366 67.26 26.8901 67.3376C26.7436 67.4237 26.6747 67.5186 26.6747 67.6392C26.6747 67.7599 26.735 67.8547 26.8643 67.915C26.9935 67.9753 27.1659 68.0271 27.3728 68.0615C27.5882 68.096 27.8209 68.1305 28.0795 68.1649C28.338 68.1994 28.588 68.2511 28.8552 68.3201C29.1137 68.389 29.355 68.4838 29.5619 68.6217C29.7774 68.751 29.9497 68.932 30.0704 69.1475C30.1997 69.3716 30.26 69.656 30.26 70.0007C30.26 70.3799 30.148 70.7161 29.9153 71.0177C29.6826 71.3194 29.3464 71.5607 28.8983 71.7417C28.4501 71.9227 27.8985 72.0089 27.2349 72.0089L27.2435 72.0002Z" fill="#1E1E1E"/>
<path d="M30.5444 67.622V66.0189H34.9744V67.622H30.5444ZM33.9143 72.0003C33.13 72.0003 32.5267 71.8106 32.0872 71.4228C31.6476 71.035 31.4322 70.4489 31.4322 69.6732V64.4331H33.5696V69.6474C33.5696 69.8628 33.6299 70.0352 33.7506 70.1559C33.8712 70.2765 34.0264 70.3455 34.216 70.3455C34.4745 70.3455 34.69 70.2852 34.871 70.1559L35.3967 71.6555C35.2157 71.7762 34.9916 71.8624 34.7331 71.9227C34.4745 71.983 34.1987 72.0089 33.9143 72.0089V72.0003Z" fill="#1E1E1E"/>
<path d="M36.2241 71.8966V65.7947H38.2667V67.5701L37.965 67.0616C38.146 66.6048 38.439 66.2601 38.8441 66.0274C39.2492 65.7947 39.7405 65.6826 40.3179 65.6826V67.6046C40.2231 67.5873 40.1369 67.5787 40.068 67.5787C39.999 67.5787 39.9215 67.5787 39.8353 67.5787C39.3957 67.5787 39.051 67.6994 38.7752 67.9321C38.508 68.1648 38.3701 68.5526 38.3701 69.087V71.888H36.2327L36.2241 71.8966Z" fill="#1E1E1E"/>
<path d="M44.1963 72.0004C43.524 72.0004 42.938 71.8625 42.4209 71.5953C41.9037 71.3282 41.4987 70.9489 41.197 70.4749C40.904 70.0009 40.7488 69.4493 40.7488 68.8374C40.7488 68.2255 40.8954 67.6739 41.197 67.2085C41.49 66.7344 41.9037 66.3638 42.4209 66.0967C42.938 65.8295 43.5327 65.7002 44.1963 65.7002C44.8599 65.7002 45.4632 65.8295 45.9803 66.0967C46.5061 66.3638 46.9112 66.7344 47.2042 67.2085C47.4972 67.6825 47.6437 68.2255 47.6437 68.8374C47.6437 69.4493 47.4972 70.0009 47.2042 70.4749C46.9112 70.9489 46.5061 71.3282 45.9803 71.5953C45.4546 71.8625 44.8599 72.0004 44.1963 72.0004ZM44.1963 70.3025C44.4462 70.3025 44.6617 70.2422 44.8513 70.1302C45.0409 70.0181 45.1961 69.8544 45.3081 69.6303C45.4201 69.4062 45.4805 69.1476 45.4805 68.8374C45.4805 68.5271 45.4288 68.2685 45.3081 68.0531C45.1874 67.8376 45.0409 67.6739 44.8513 67.5618C44.6617 67.4498 44.4376 67.3894 44.1963 67.3894C43.955 67.3894 43.7395 67.4498 43.5499 67.5618C43.3603 67.6739 43.2052 67.8376 43.0845 68.0531C42.9638 68.2685 42.9121 68.5271 42.9121 68.8374C42.9121 69.1476 42.9724 69.4148 43.0845 69.6303C43.1965 69.8458 43.3517 70.0181 43.5499 70.1302C43.7481 70.2422 43.955 70.3025 44.1963 70.3025Z" fill="#1E1E1E"/>
<path d="M49.3847 71.8968V64.0107H49.7036L53.4182 70.4661H53.2458L56.9432 64.0107H57.2621V71.8968H56.9001V64.5796H57.0122L53.4268 70.8108H53.22L49.6174 64.5796H49.7553V71.8968H49.3847Z" fill="#1E1E1E"/>
<path d="M61.5111 71.9313C61.0716 71.9313 60.6924 71.8623 60.3821 71.7244C60.0718 71.5865 59.8305 71.3969 59.6668 71.147C59.503 70.897 59.4168 70.6126 59.4168 70.2851C59.4168 70.0007 59.4858 69.7335 59.6237 69.4922C59.7616 69.2509 59.9856 69.0526 60.2959 68.9061C60.6062 68.7596 61.0285 68.6906 61.5542 68.6906H63.8209V68.9923H61.5542C60.9164 68.9923 60.4597 69.113 60.2011 69.3543C59.9339 69.5956 59.8046 69.8973 59.8046 70.2679C59.8046 70.6816 59.9598 71.0091 60.2701 71.2504C60.5803 71.4917 61.0026 71.6124 61.5542 71.6124C62.1058 71.6124 62.5454 71.4917 62.8987 71.2504C63.2521 71.0091 63.5193 70.6557 63.7003 70.2075L63.8209 70.4575C63.6744 70.897 63.3986 71.259 63.0108 71.5262C62.6229 71.7934 62.1317 71.9313 61.537 71.9313H61.5111ZM63.683 71.8968V70.3282L63.6744 68.1132C63.6744 67.5358 63.5193 67.0962 63.209 66.7946C62.8987 66.4929 62.4506 66.3464 61.8645 66.3464C61.4336 66.3464 61.0457 66.4153 60.6924 66.5619C60.339 66.7084 60.0373 66.898 59.7788 67.1307L59.5719 66.8635C59.8477 66.6049 60.1925 66.3895 60.5976 66.243C61.0026 66.0878 61.4249 66.0103 61.8731 66.0103C62.5712 66.0103 63.1056 66.1912 63.4762 66.5446C63.8468 66.898 64.0364 67.4237 64.0364 68.1132V71.8968H63.6744H63.683Z" fill="#1E1E1E"/>
<path d="M66.4755 71.8966V66.0532H66.8375V67.6649L66.803 67.5614C66.9581 67.0702 67.2339 66.691 67.6304 66.4152C68.0268 66.1394 68.5181 66.0015 69.1128 66.0015V66.3721H69.0093C68.3371 66.3721 67.8027 66.5875 67.4235 67.0185C67.0443 67.4494 66.8461 68.0355 66.8461 68.7853V71.8966H66.4755Z" fill="#1E1E1E"/>
<path d="M72.4912 71.8966L69.8195 66.0532H70.2245L72.7584 71.6726H72.586L75.1285 66.0532H75.525L72.8532 71.8966H72.4826H72.4912Z" fill="#1E1E1E"/>
</g>
<defs>
<linearGradient id="paint0_linear_324_411" x1="45.808" y1="0.436296" x2="45.808" y2="62.0985" gradientUnits="userSpaceOnUse">
<stop stop-color="#01CBF9"/>
<stop offset="1" stop-color="#028EED"/>
</linearGradient>
<linearGradient id="paint1_linear_324_411" x1="51.6428" y1="0.448339" x2="51.6428" y2="62.0974" gradientUnits="userSpaceOnUse">
<stop stop-color="#01CBF9"/>
<stop offset="1" stop-color="#028EED"/>
</linearGradient>
<linearGradient id="paint2_linear_324_411" x1="23.8477" y1="0.448312" x2="23.8477" y2="62.0973" gradientUnits="userSpaceOnUse">
<stop stop-color="#01CBF9"/>
<stop offset="1" stop-color="#028EED"/>
</linearGradient>
<linearGradient id="paint3_linear_324_411" x1="44.8083" y1="0.44824" x2="44.8083" y2="62.0973" gradientUnits="userSpaceOnUse">
<stop stop-color="#01CBF9"/>
<stop offset="1" stop-color="#028EED"/>
</linearGradient>
<linearGradient id="paint4_linear_324_411" x1="52.0738" y1="0.448137" x2="52.0738" y2="62.0971" gradientUnits="userSpaceOnUse">
<stop stop-color="#01CBF9"/>
<stop offset="1" stop-color="#028EED"/>
</linearGradient>
<linearGradient id="paint5_linear_324_411" x1="48.7987" y1="0.44828" x2="48.7987" y2="62.0973" gradientUnits="userSpaceOnUse">
<stop stop-color="#01CBF9"/>
<stop offset="1" stop-color="#028EED"/>
</linearGradient>
<linearGradient id="paint6_linear_324_411" x1="42.4984" y1="0.448311" x2="42.4984" y2="62.0974" gradientUnits="userSpaceOnUse">
<stop stop-color="#01CBF9"/>
<stop offset="1" stop-color="#028EED"/>
</linearGradient>
<linearGradient id="paint7_linear_324_411" x1="47.592" y1="0.448321" x2="47.592" y2="62.0973" gradientUnits="userSpaceOnUse">
<stop stop-color="#01CBF9"/>
<stop offset="1" stop-color="#028EED"/>
</linearGradient>
<linearGradient id="paint8_linear_324_411" x1="33.0266" y1="0.447966" x2="33.0266" y2="62.097" gradientUnits="userSpaceOnUse">
<stop stop-color="#01CBF9"/>
<stop offset="1" stop-color="#028EED"/>
</linearGradient>
<linearGradient id="paint9_linear_324_411" x1="26.8384" y1="0.448245" x2="26.8384" y2="62.0973" gradientUnits="userSpaceOnUse">
<stop stop-color="#01CBF9"/>
<stop offset="1" stop-color="#028EED"/>
</linearGradient>
<linearGradient id="paint10_linear_324_411" x1="23.6409" y1="0.448114" x2="23.6409" y2="62.0972" gradientUnits="userSpaceOnUse">
<stop stop-color="#01CBF9"/>
<stop offset="1" stop-color="#028EED"/>
</linearGradient>
<linearGradient id="paint11_linear_324_411" x1="30.6564" y1="0.448239" x2="30.6564" y2="62.0972" gradientUnits="userSpaceOnUse">
<stop stop-color="#01CBF9"/>
<stop offset="1" stop-color="#028EED"/>
</linearGradient>
<linearGradient id="paint12_linear_324_411" x1="42.576" y1="0.448175" x2="42.576" y2="62.0972" gradientUnits="userSpaceOnUse">
<stop stop-color="#01CBF9"/>
<stop offset="1" stop-color="#028EED"/>
</linearGradient>
<linearGradient id="paint13_linear_324_411" x1="52.4702" y1="0.448176" x2="52.4702" y2="62.0972" gradientUnits="userSpaceOnUse">
<stop stop-color="#01CBF9"/>
<stop offset="1" stop-color="#028EED"/>
</linearGradient>
<linearGradient id="paint14_linear_324_411" x1="23.0807" y1="0.448124" x2="23.0807" y2="62.0972" gradientUnits="userSpaceOnUse">
<stop stop-color="#01CBF9"/>
<stop offset="1" stop-color="#028EED"/>
</linearGradient>
<linearGradient id="paint15_linear_324_411" x1="27.9674" y1="0.448342" x2="27.9674" y2="62.0974" gradientUnits="userSpaceOnUse">
<stop stop-color="#01CBF9"/>
<stop offset="1" stop-color="#028EED"/>
</linearGradient>
<linearGradient id="paint16_linear_324_411" x1="32.9663" y1="0.448395" x2="32.9663" y2="62.0974" gradientUnits="userSpaceOnUse">
<stop stop-color="#01CBF9"/>
<stop offset="1" stop-color="#028EED"/>
</linearGradient>
<clipPath id="clip0_324_411">
<rect width="75.525" height="72" fill="white"/>
</clipPath>
</defs>
</svg>
