<svg width="76" height="72" viewBox="0 0 76 72" fill="none" xmlns="http://www.w3.org/2000/svg">
<g clip-path="url(#clip0_693_2)">
<path d="M45.8166 55.4091V55.4005H45.808L45.8166 55.4091Z" fill="url(#paint0_linear_693_2)"/>
<path d="M62.0024 35.4656C64.3984 32.8111 64.881 29.6308 64.4415 26.2092C64.407 25.175 63.9933 24.2183 63.8037 23.2099C63.7951 23.1496 63.7865 23.0807 63.7778 23.0203C63.2349 22.1929 62.8729 21.2621 62.2523 20.4692C61.9076 20.0211 61.7007 19.8573 61.1664 20.2969C60.0632 21.2018 60.0374 21.4259 60.3735 22.8135C61.2698 26.5798 61.6318 30.3634 60.8647 34.2246C60.2873 37.1635 59.2358 39.9042 57.7448 42.4812C57.176 43.4723 56.6158 44.5238 55.8056 45.2995C55.1764 45.9028 55.1937 46.4716 55.1937 47.1611C55.1764 49.7295 52.6339 51.1774 50.3845 49.9794C48.9452 49.2123 48.5918 47.0491 49.0572 45.8942C49.6433 44.4462 51.2119 43.5068 52.6857 43.9808C53.7371 44.317 54.1939 43.9636 54.7714 43.1707C58.5032 38.034 59.7616 32.3198 58.9859 26.08C58.8911 25.287 58.417 24.6234 58.3567 23.8132C58.3222 23.2961 57.9516 23.5202 57.7276 23.7184C57.0725 24.2787 56.4348 24.8475 55.7884 25.4163C55.7884 25.7611 55.7884 26.0886 55.7884 26.4247V26.4419C56.4089 28.4415 56.3744 30.441 55.8056 32.4405C55.7884 32.5698 55.7711 32.6991 55.7539 32.8197C55.728 33.242 55.6763 33.6557 55.3919 33.9918C55.3574 34.0436 55.3057 34.0694 55.2454 34.0608C55.0127 34.9227 54.892 35.707 55.3488 36.6205C56.1159 38.1633 55.3919 40.1283 53.9095 40.7661C52.5391 41.3608 50.6861 41.2143 49.695 39.4561C48.5918 37.491 49.8415 34.8882 52.1168 34.8192C53.2545 34.7848 53.6079 34.2763 53.8147 33.3541C53.9181 32.9059 54.0819 32.4664 54.2112 32.0182C54.3318 30.4151 54.3318 30.4151 52.6684 30.4151C51.0481 30.4151 49.4192 30.3979 47.7989 30.3893C47.4628 30.3979 47.1266 30.4582 46.7991 30.4151C46.0666 30.3376 45.6011 30.553 45.2133 31.2597C44.5066 32.5612 43.1276 33.0697 41.8262 32.6732C40.3179 32.2164 39.3785 31.0098 39.3785 29.5274C39.3785 28.1915 40.3266 26.8642 41.5504 26.485C42.9811 26.0369 44.5497 26.5712 45.265 27.8899C45.627 28.5449 46.0666 28.6569 46.713 28.6483C48.8418 28.6224 50.9792 28.6397 53.108 28.6397C54.3577 28.6397 54.3577 28.6397 54.1939 27.4072C54.1681 27.209 54.1939 27.0108 54.1939 26.8125C54.1077 26.2868 53.944 25.8042 53.401 25.5715C52.4271 25.063 51.4446 24.5545 50.4707 24.0373C50.0656 23.8219 49.7553 23.8736 49.3761 24.1494C48.1695 25.0371 46.8939 25.0112 45.4202 23.9856C44.2136 23.141 44.2911 21.8137 44.429 20.5554C44.5324 19.5987 45.9028 18.599 47.1353 18.418C48.9021 18.1681 50.6603 19.5126 50.7292 21.288C50.7551 22.0551 51.074 22.4257 51.6945 22.7273C52.384 23.0634 53.0563 23.4254 53.7027 23.8305C54.2543 24.1666 54.6852 24.2614 55.1592 23.6926C55.6246 23.1324 56.1331 22.5722 56.7278 22.1757C57.6845 21.5379 57.5638 20.8657 57.1156 19.978C56.4606 18.6679 55.7453 17.401 54.961 16.1685C54.7197 15.7893 54.4352 15.6342 53.9871 15.6342C51.4187 15.6514 48.8504 15.6428 46.2906 15.6342C45.808 15.6342 45.5667 15.7893 45.3081 16.2461C44.248 18.0474 42.033 18.4697 40.5162 17.2889C39.3268 16.3581 39.1286 15.1171 39.4388 13.7812C39.7146 12.5746 40.6454 11.8765 41.8176 11.6438C43.2138 11.3593 44.4376 11.7989 45.1702 13.0486C45.5322 13.6691 45.9459 13.8501 46.6009 13.8415C48.3677 13.8156 50.1345 13.8329 51.9014 13.8156C52.1513 13.8156 52.4961 13.9708 52.6339 13.6864C52.8063 13.3244 52.3668 13.2123 52.1944 12.9969C51.4273 11.9971 50.5138 11.5576 49.1865 11.9713C48.1609 12.2988 46.6095 11.5662 45.8856 10.0321C45.3684 8.94612 45.5408 7.61023 46.4027 6.69666C47.4197 5.61071 48.9624 5.17116 50.0397 5.65381C51.4532 6.28297 52.0737 7.41201 51.8927 9.13573C51.841 9.64423 51.9617 10.0148 52.3582 10.3596C55.0299 12.6607 57.2018 15.3498 58.7446 18.5387C58.9083 18.8834 59.1065 19.3488 59.5892 19.2195C60.2356 19.0558 60.6234 18.5214 60.8216 17.9095C61.175 16.8408 60.9595 15.729 60.9682 14.6344L60.9078 14.0053C60.4166 13.4968 60.2614 12.7986 59.9684 12.1867C59.141 10.4544 57.6931 9.29948 56.271 8.11011C56.2279 8.12735 56.2021 8.11873 56.1762 8.08426C56.1417 8.08426 56.1073 8.08426 56.0728 8.08426C54.7283 8.09288 53.7027 7.8257 53.7113 6.10197C53.7113 5.54176 53.22 4.98155 52.9528 4.41272L52.9184 4.34377C52.4443 4.05936 52.0479 3.69738 51.729 3.24059C49.876 2.12879 47.9627 1.31002 45.7304 1.99089C45.0927 2.18912 45.0237 1.70648 44.9461 1.27554C44.6703 1.24107 44.4463 1.12041 44.3428 0.844613C44.0067 0.835994 43.774 0.646384 43.5672 0.413681C43.4379 0.396444 43.3086 0.379207 43.1793 0.36197C43.0587 0.387825 42.9811 0.36197 42.9638 0.224072C42.7311 0.241309 42.5071 0.206834 42.3347 0.0258432C42.2744 0.0603177 42.2226 0.0516991 42.1796 0.00860596C41.5159 0.00860596 40.8609 0.0258432 40.1973 0.0258432C40.1025 0.198216 39.956 0.206834 39.7836 0.17236C39.6888 0.387825 39.4992 0.439537 39.2923 0.456775C38.8528 1.00837 38.7838 1.63753 38.7838 2.32702C38.7924 20.2969 38.7838 38.2581 38.8011 56.2279C38.8011 56.8312 38.4305 57.5983 39.1717 58.055C40.0249 58.5808 40.9471 58.5118 41.8779 58.2533C42.6019 58.055 43.1276 57.5121 43.7826 57.1932C43.7999 57.1242 43.8516 57.0898 43.9205 57.0812C44.1015 54.4008 43.9722 51.7204 44.0067 49.0314C44.0239 47.773 44.0067 46.5147 44.0067 45.2564C43.7999 45.1185 43.593 44.9892 43.3862 44.8513C42.4467 44.498 41.9813 43.774 41.8262 42.8259C41.74 42.4295 41.7314 42.033 41.8262 41.6366C42.1192 40.0077 43.2827 39.0165 44.9117 38.9993C46.5061 38.982 47.773 40.1025 48.1092 41.8434C48.3677 43.1793 47.3766 44.6531 45.8166 45.2478C45.7994 45.7821 45.7821 46.3079 45.7649 46.8422C45.7649 47.3766 45.7649 47.9109 45.7649 48.4453C45.7649 49.5054 45.7649 50.5741 45.7649 51.6342C45.7649 52.1685 45.7649 52.7029 45.7649 53.2372C45.7649 53.3751 45.7649 53.513 45.7649 53.6423C45.7649 54.1767 45.7821 54.7024 45.7908 55.2368C45.8425 55.2799 45.8597 55.3402 45.8425 55.4091C47.6782 55.6763 49.3416 55.0213 51.0136 54.418C51.3498 54.2025 51.6773 53.9871 52.0134 53.7802C54.2542 52.3754 56.2279 50.7551 56.7537 47.9454C56.814 47.6007 57.0294 47.368 57.3656 47.2214C59.0807 46.4716 60.1839 45.084 61.0543 43.5068C62.192 41.447 62.5195 39.2578 61.9076 36.948C61.7783 36.474 61.5456 36 62.0283 35.4656H62.0024Z" fill="url(#paint1_linear_693_2)"/>
<path d="M36.7326 14.7809C36.7326 10.5837 36.7326 6.38639 36.7412 2.18912C36.7412 1.7151 36.6981 1.25831 36.5775 0.810142C36.4568 0.6981 36.3534 0.560202 36.2069 0.491253C34.5348 -0.37061 32.9404 0.00860956 31.3718 0.810142C31.0874 1.12903 30.7771 1.42206 30.5272 1.75819C30.2859 2.0857 30.0014 2.12879 29.6567 2.03399C27.209 1.35312 25.2181 2.29255 23.3823 3.78357C23.2531 3.88699 23.1496 4.01627 22.9773 4.01627C23.0031 4.30068 22.8135 4.39549 22.5894 4.43858C22.6067 4.49891 22.5894 4.55063 22.5549 4.59372C22.124 5.51591 21.5897 6.41225 21.6069 7.48096C21.6069 7.98084 21.2794 7.98084 20.926 7.9636C19.5729 7.89465 18.6507 8.67033 17.7199 9.52357C16.203 10.9026 15.2119 12.5832 14.7465 14.5396C14.35 16.2289 14.2811 17.9009 15.7635 19.2368C16.1858 19.616 16.3064 19.5729 16.5133 19.0989C18.0646 15.6083 20.3917 12.7038 23.2875 10.2389C23.6754 9.90279 23.5719 9.56667 23.5461 9.17021C23.391 6.67081 25.2784 4.92984 27.502 5.49867C28.6828 5.80033 29.7256 6.77423 29.7774 7.73952C29.8463 9.20468 29.9756 10.6612 28.2777 11.4972C27.3124 11.9713 26.4506 12.2212 25.468 11.7127C24.9595 11.4455 24.6234 11.8075 24.339 12.1005C23.8391 12.609 22.7446 12.9796 22.9428 13.6174C23.1755 14.35 24.1753 13.7208 24.8303 13.7639C26.2265 13.8587 27.6486 13.6519 29.0189 13.8329C30.148 13.988 30.329 13.0486 30.7685 12.5659C32.0872 11.1353 34.3711 11.368 35.4657 12.5659C36.474 13.6605 36.474 16.2202 35.0347 17.3062C33.2679 18.6335 30.8461 18.0388 30.0704 15.8927C30.0359 15.7979 29.967 15.7204 29.9066 15.6428L23.7443 15.5997C23.5806 15.6169 23.4082 15.6773 23.2531 15.6428C21.1243 15.1343 20.2021 16.5478 19.3747 18.0819C18.9955 18.78 18.7024 19.5212 18.306 20.2021C17.8664 20.9605 17.9526 21.5552 18.6852 22.0637C18.9265 22.2274 19.1506 22.4429 19.2368 22.7445C19.2885 22.7445 19.323 22.7704 19.3316 22.8221C19.728 22.9686 20.0383 23.253 20.2279 23.5806C20.6675 24.3304 21.2104 24.1752 21.7879 23.8477C22.193 23.6236 22.5636 23.322 22.9859 23.1324C24.0201 22.667 24.7699 22.1585 24.8561 20.7795C24.9337 19.5039 25.9852 18.6938 27.2521 18.4094C28.519 18.125 29.6481 18.5473 30.4927 19.4867C31.4494 20.5468 31.3459 22.5377 30.3893 23.615C29.2516 24.8906 27.5882 25.2095 26.2179 24.2614C25.5887 23.8219 25.1492 23.9253 24.5976 24.2614C23.9167 24.6665 23.2186 25.0457 22.5205 25.4336C21.6758 25.899 21.0208 27.3641 21.2277 28.2777C21.2966 28.588 21.5293 28.5966 21.762 28.5966C24.2959 28.5966 26.8298 28.5966 29.3637 28.5966C29.8032 28.5966 29.9756 28.3553 30.1738 28.0019C31.1305 26.2696 33.2334 25.7869 34.8882 26.8987C36.3017 27.8468 36.5861 30.0704 35.4915 31.5269C34.3969 32.9662 32.1906 33.1386 30.7857 31.8803C30.6651 31.7682 30.4841 31.6562 30.4496 31.5183C30.148 30.191 29.1223 30.4237 28.1915 30.4324C27.0883 30.4324 25.9938 30.4324 24.8906 30.441C23.9684 30.4496 23.0634 30.3289 22.1326 30.3979C21.3828 30.4496 21.2018 30.6823 21.3397 31.3459C21.5207 32.2164 21.6586 33.1041 21.8741 33.9746C21.9947 34.4745 22.2361 34.7675 22.9169 34.7244C24.3735 34.6382 25.7956 35.6035 26.1058 36.8791C26.4333 38.2495 26.2523 39.4992 25.1147 40.3955C23.9253 41.3349 22.5722 41.378 21.2191 40.5248C19.9607 39.7319 19.4522 37.8013 20.2452 36.4654C20.5727 35.9052 20.6416 35.4398 20.3831 34.8796C19.2368 32.3371 19.0644 29.6825 19.5815 26.9849C19.7625 26.0455 19.7539 25.3129 18.9179 24.7268C18.711 24.5889 18.4956 24.3907 18.4611 24.0977C18.2025 24.0804 18.056 23.8908 17.8837 23.7443C17.3924 23.3306 17.108 23.5202 16.9873 24.0804C16.0565 28.3208 16.1082 32.5353 17.4786 36.6809C18.2887 39.1372 19.4609 41.4125 21.0295 43.481C21.4518 44.0326 21.8224 44.317 22.598 44.0239C24.4941 43.3 27.1918 45.0065 26.5626 47.2301C26.5626 47.4886 26.5626 47.7558 26.5626 48.0144C26.1231 49.7208 24.7096 50.6517 22.9686 50.3931C21.4518 50.1604 20.2365 48.7125 20.3658 47.118C20.4261 46.3079 20.1848 45.7563 19.6936 45.1444C16.4702 41.1367 14.7896 36.5602 14.2897 31.4321C14.057 29.0275 14.5913 26.7264 14.6172 24.3735C14.6172 24.2183 14.7034 24.0546 14.7809 23.9167C15.5566 22.4601 15.6428 21.1156 14.1604 20.0124C13.4882 19.978 13.2468 20.5296 12.9883 20.9605C10.5406 25.0371 10.2993 29.2688 12.2212 33.604C12.4539 34.1384 12.8159 34.6727 13.2555 35.0519C13.9794 35.6725 13.8846 36.362 13.7036 37.129C12.747 41.1195 14.5224 45.1271 18.1164 47.1094C18.4094 47.2732 18.7972 47.368 18.8317 47.7472C18.9696 49.2985 19.9435 50.419 20.7623 51.6256C21.3397 52.1082 21.8913 52.6253 22.5032 53.0563C24.5028 54.4611 26.6402 55.4867 29.1741 55.4436C29.8204 55.4264 30.0187 55.2281 29.8118 54.6248C29.8118 51.6256 29.8118 48.6263 29.8118 45.627C29.7946 45.4977 29.786 45.3771 29.7687 45.2478C28.2605 44.7134 27.2435 43.3172 27.4245 41.9641C27.6399 40.3007 28.8207 39.0682 30.5186 39.0251C31.9406 38.9907 33.2938 39.8094 33.7419 41.1625C34.1901 42.5071 33.5696 44.2308 32.1906 45.0065C31.6217 45.3253 31.57 45.6701 31.57 46.1872C31.5873 49.1175 31.6562 52.0565 31.5528 54.9782C31.5097 56.3313 31.7424 57.3828 33.0266 58.012H33.1128L33.1817 58.0551C34.3194 58.5032 35.457 58.5118 36.5947 58.0464H36.6033C36.8015 57.6758 36.7757 57.2708 36.7757 56.8743C36.7671 42.8518 36.7498 28.8207 36.7498 14.7982L36.7326 14.7809Z" fill="url(#paint2_linear_693_2)"/>
<path d="M43.4293 41.447C43.3689 41.628 43.3086 41.809 43.2483 41.9986C43.4982 42.4295 43.3258 43.0328 43.7999 43.3776C43.8688 43.3948 43.9377 43.3948 43.9981 43.4207C44.7651 43.7654 45.4805 43.774 46.0321 43.0328C46.463 42.464 46.4802 41.8176 46.0407 41.2832C45.4719 40.5765 44.7134 40.6713 43.955 40.9816C43.8085 41.0419 43.6878 41.1453 43.5499 41.2315C43.593 41.3522 43.5327 41.4125 43.4206 41.4556L43.4293 41.447Z" fill="url(#paint3_linear_693_2)"/>
<path d="M52.0651 45.6356C51.2722 45.6184 50.5655 46.3337 50.5741 47.1697C50.5741 47.9626 51.255 48.6349 52.0393 48.6263C52.8494 48.6263 53.513 47.9196 53.5647 47.0232C53.5906 46.5406 52.6339 45.6529 52.0651 45.6356Z" fill="url(#paint4_linear_693_2)"/>
<path d="M48.859 7.2224C47.9971 7.20516 47.368 7.8257 47.3593 8.72204C47.3593 9.54081 48.0402 10.1613 48.9279 10.1527C49.7036 10.1441 50.2293 9.56666 50.2293 8.72204C50.2293 7.85156 49.6778 7.24825 48.8504 7.23102L48.859 7.2224Z" fill="url(#paint5_linear_693_2)"/>
<path d="M41.0333 14.6775C40.9816 15.4101 41.5763 16.1082 42.3088 16.1772C43.0673 16.2461 43.8602 15.6256 43.9378 14.893C44.0239 14.1345 43.3086 13.2985 42.5329 13.2468C41.7917 13.1951 41.085 13.8587 41.0247 14.6689L41.0333 14.6775Z" fill="url(#paint6_linear_693_2)"/>
<path d="M46.1872 21.5293C46.1872 22.4429 46.6612 22.9514 47.5662 22.9859C48.4108 23.0203 48.9969 22.4343 48.9969 21.5724C48.9969 20.7795 48.3505 20.0728 47.6007 20.0469C46.8595 20.0211 46.1872 20.7278 46.1872 21.5207V21.5293Z" fill="url(#paint7_linear_693_2)"/>
<path d="M34.4917 14.7034C34.4831 13.9277 33.8195 13.2986 33.0093 13.2986C32.3888 13.2986 31.5614 14.0828 31.57 14.6517C31.5873 15.4618 32.3371 16.2116 33.1041 16.1944C33.9143 16.1686 34.509 15.5394 34.4917 14.712V14.7034Z" fill="url(#paint8_linear_693_2)"/>
<path d="M26.7867 10.1441C27.4676 10.1269 28.3811 9.29948 28.3467 8.71342C28.3036 8.00669 27.4589 7.22239 26.735 7.21378C25.9162 7.21378 25.3129 7.91188 25.356 8.82546C25.3905 9.5839 26.0196 10.1613 26.7953 10.1441H26.7867Z" fill="url(#paint9_linear_693_2)"/>
<path d="M25.1319 47.4111C25.1491 47.3507 25.1664 47.2904 25.1922 47.2387C25.1147 46.5492 24.632 46.1269 24.1063 45.7994C23.4857 45.4115 22.5291 45.8338 22.2102 46.5664C21.9258 47.2301 22.236 48.2126 22.8135 48.4539C23.9511 48.9193 24.5286 48.1523 25.1319 47.4111Z" fill="url(#paint10_linear_693_2)"/>
<path d="M32.1044 42.1709C32.0958 41.4383 31.4407 40.8092 30.6823 40.8006C29.8808 40.7833 29.1999 41.4383 29.2085 42.214C29.2085 42.9552 29.8722 43.6016 30.6134 43.6102C31.4149 43.6102 32.113 42.938 32.1044 42.1709Z" fill="url(#paint11_linear_693_2)"/>
<path d="M41.1798 29.2258C40.9902 30.0187 41.5935 30.8202 42.4036 30.984C42.9208 31.0874 43.2741 30.7168 43.7051 30.5961C43.7309 30.5358 43.7568 30.4755 43.7912 30.4151C43.8602 30.1997 43.9722 29.9842 43.9981 29.7601C44.1101 28.881 43.5499 28.1484 42.6967 28.0881C41.8779 28.0278 41.3608 28.4587 41.1798 29.2258Z" fill="url(#paint12_linear_693_2)"/>
<path d="M52.5047 36.4482C51.7031 36.4137 51.0395 37.0256 51.005 37.8271C50.9706 38.7407 51.5222 39.3268 52.4443 39.3526C53.2286 39.3785 53.9268 38.7149 53.9354 37.9306C53.944 37.1463 53.3062 36.4826 52.4961 36.4482H52.5047Z" fill="url(#paint13_linear_693_2)"/>
<path d="M24.5372 37.9737C24.5631 37.2669 23.8133 36.4568 23.1065 36.4482C22.3309 36.4309 21.6241 37.017 21.6069 37.6979C21.581 38.577 22.2705 39.3699 23.0721 39.3871C23.7271 39.3871 24.5028 38.6459 24.5286 37.9823L24.5372 37.9737Z" fill="url(#paint14_linear_693_2)"/>
<path d="M29.3723 21.5983C29.3723 20.7795 28.7431 20.1159 27.9588 20.1072C27.1918 20.1072 26.554 20.7967 26.5712 21.6155C26.5885 22.4687 27.097 22.8824 27.8813 22.96C28.7 23.0376 29.3809 22.3826 29.3809 21.5983H29.3723Z" fill="url(#paint15_linear_693_2)"/>
<path d="M34.3883 29.5533C34.4055 28.7087 33.8626 28.2174 32.9145 28.2088C32.113 28.2088 31.5528 28.7604 31.5442 29.5619C31.5442 30.2859 32.2767 31.0012 33.0179 30.9926C33.7247 30.9926 34.3797 30.2945 34.3883 29.5533Z" fill="url(#paint16_linear_693_2)"/>
<path d="M0 71.8966V64.0105H1.83577L5.10223 69.3713H4.13694L7.31721 64.0105H9.15298L9.17884 71.8966H7.1276L7.10175 67.1305H7.44649L5.06775 71.1209H4.07661L1.62892 67.1305H2.05985V71.8966H0Z" fill="white"/>
<path d="M12.5659 72C12.0747 72 11.661 71.9138 11.3249 71.7501C10.9887 71.5863 10.7302 71.3622 10.5492 71.0778C10.3682 70.7934 10.282 70.4745 10.282 70.1212C10.282 69.7419 10.3768 69.423 10.5664 69.1472C10.756 68.8715 11.0491 68.6646 11.4541 68.5181C11.8592 68.3716 12.3677 68.3026 12.9969 68.3026H14.4362V69.4144H13.2899C12.9452 69.4144 12.7038 69.4748 12.5659 69.5868C12.4281 69.6988 12.3591 69.854 12.3591 70.035C12.3591 70.216 12.4281 70.3711 12.5746 70.4831C12.7211 70.5952 12.9107 70.6555 13.1606 70.6555C13.3933 70.6555 13.6088 70.5952 13.7984 70.4831C13.988 70.3711 14.1345 70.1901 14.2207 69.9488L14.5138 70.7331C14.4017 71.1554 14.1776 71.4743 13.8587 71.6811C13.5399 71.888 13.1003 72 12.5659 72ZM14.3672 71.8966V70.7589L14.2207 70.4745V68.3802C14.2207 68.0441 14.1173 67.7855 13.9105 67.5959C13.7036 67.4149 13.3761 67.3201 12.9279 67.3201C12.6349 67.3201 12.3419 67.3632 12.0402 67.458C11.7386 67.5528 11.4886 67.6821 11.2732 67.8458L10.5492 66.3893C10.8939 66.1652 11.3076 65.9928 11.7903 65.8635C12.2729 65.7429 12.7556 65.6826 13.2382 65.6826C14.2293 65.6826 14.9964 65.9066 15.5394 66.3634C16.0823 66.8202 16.3581 67.5269 16.3581 68.5009V71.888H14.3672V71.8966Z" fill="white"/>
<path d="M20.995 72C20.271 72 19.6419 71.8621 19.1075 71.5863C18.5732 71.3105 18.1508 70.9399 17.8578 70.4573C17.5648 69.9832 17.4096 69.4403 17.4096 68.8283C17.4096 68.2164 17.5562 67.6821 17.8406 67.1994C18.1336 66.7254 18.5301 66.3548 19.0386 66.0876C19.5471 65.8204 20.1245 65.6912 20.7623 65.6912C21.3656 65.6912 21.9086 65.8118 22.4084 66.0531C22.8997 66.2945 23.2962 66.6564 23.5892 67.1305C23.8822 67.6045 24.0287 68.1819 24.0287 68.8542C24.0287 68.9318 24.0287 69.018 24.0201 69.1128C24.0115 69.2076 24.0029 69.3024 23.9943 69.3799H19.1592V68.2509H22.8566L22.0465 68.5698C22.0465 68.294 22.0034 68.0527 21.8913 67.8458C21.7793 67.639 21.6328 67.4838 21.4432 67.3718C21.2535 67.2597 21.0295 67.1994 20.7709 67.1994C20.5123 67.1994 20.2883 67.2597 20.0986 67.3718C19.909 67.4838 19.7625 67.6476 19.6505 67.8544C19.5471 68.0613 19.4953 68.3026 19.4953 68.5784V68.9059C19.4953 69.2076 19.5557 69.4661 19.685 69.6816C19.8056 69.897 19.9866 70.0694 20.2193 70.1815C20.452 70.2935 20.7278 70.3538 21.0553 70.3538C21.357 70.3538 21.6155 70.3107 21.831 70.2246C22.0465 70.1384 22.2533 70.0091 22.4688 69.8281L23.5978 71.0002C23.3048 71.3277 22.9428 71.5691 22.5205 71.7414C22.0896 71.9138 21.5897 71.9914 21.0036 71.9914L20.995 72Z" fill="white"/>
<path d="M27.2435 72C26.7264 72 26.2179 71.9397 25.7266 71.819C25.2353 71.6983 24.8389 71.5518 24.5372 71.3708L25.175 69.9057C25.4594 70.078 25.7956 70.2159 26.1748 70.3194C26.554 70.4228 26.9332 70.4745 27.3038 70.4745C27.6744 70.4745 27.9157 70.44 28.0536 70.3625C28.1915 70.2849 28.2605 70.1815 28.2605 70.0608C28.2605 69.9401 28.1915 69.854 28.0623 69.7936C27.933 69.7333 27.7606 69.6902 27.5451 69.6643C27.3297 69.6299 27.097 69.604 26.8384 69.5609C26.5798 69.5264 26.3299 69.4747 26.0627 69.4058C25.7956 69.3368 25.5628 69.242 25.356 69.1128C25.1405 68.9835 24.9682 68.8025 24.8475 68.5784C24.7182 68.3543 24.6579 68.0699 24.6579 67.7252C24.6579 67.3373 24.7699 66.984 25.0026 66.6823C25.2353 66.3807 25.5715 66.1393 26.011 65.9583C26.4506 65.786 26.9935 65.6912 27.6313 65.6912C28.0623 65.6912 28.4932 65.7343 28.9327 65.8204C29.3723 65.9066 29.7429 66.0359 30.0445 66.2083L29.4068 67.6648C29.1051 67.4925 28.8035 67.3718 28.5018 67.3115C28.2001 67.2511 27.9157 67.2167 27.6486 67.2167C27.2866 67.2167 27.0366 67.2597 26.8901 67.3373C26.7436 67.4235 26.6747 67.5183 26.6747 67.639C26.6747 67.7596 26.735 67.8544 26.8643 67.9148C26.9935 67.9751 27.1659 68.0268 27.3728 68.0613C27.5882 68.0958 27.8209 68.1302 28.0795 68.1647C28.338 68.1992 28.588 68.2509 28.8552 68.3198C29.1137 68.3888 29.355 68.4836 29.5619 68.6215C29.7774 68.7508 29.9497 68.9318 30.0704 69.1472C30.1997 69.3713 30.26 69.6557 30.26 70.0005C30.26 70.3797 30.148 70.7158 29.9153 71.0175C29.6826 71.3191 29.3464 71.5604 28.8983 71.7414C28.4501 71.9224 27.8985 72.0086 27.2349 72.0086L27.2435 72Z" fill="white"/>
<path d="M30.5444 67.6218V66.0187H34.9744V67.6218H30.5444ZM33.9143 72C33.13 72 32.5267 71.8104 32.0871 71.4226C31.6476 71.0347 31.4321 70.4487 31.4321 69.673V64.4329H33.5695V69.6471C33.5695 69.8626 33.6299 70.035 33.7505 70.1556C33.8712 70.2763 34.0263 70.3452 34.2159 70.3452C34.4745 70.3452 34.69 70.2849 34.871 70.1556L35.3967 71.6553C35.2157 71.7759 34.9916 71.8621 34.7331 71.9224C34.4745 71.9828 34.1987 72.0086 33.9143 72.0086V72Z" fill="white"/>
<path d="M36.2241 71.8966V65.7946H38.2667V67.57L37.9651 67.0615C38.146 66.6047 38.4391 66.26 38.8442 66.0273C39.2492 65.7946 39.7405 65.6826 40.3179 65.6826V67.6045C40.2231 67.5873 40.1369 67.5787 40.068 67.5787C39.9991 67.5787 39.9215 67.5787 39.8353 67.5787C39.3957 67.5787 39.051 67.6993 38.7752 67.932C38.508 68.1647 38.3701 68.5526 38.3701 69.0869V71.888H36.2327L36.2241 71.8966Z" fill="white"/>
<path d="M44.1963 72C43.5241 72 42.938 71.8621 42.4209 71.5949C41.9038 71.3278 41.4987 70.9485 41.197 70.4745C40.904 70.0005 40.7489 69.4489 40.7489 68.837C40.7489 68.2251 40.8954 67.6735 41.197 67.2081C41.4901 66.734 41.9038 66.3634 42.4209 66.0963C42.938 65.8291 43.5327 65.6998 44.1963 65.6998C44.86 65.6998 45.4633 65.8291 45.9804 66.0963C46.5061 66.3634 46.9112 66.734 47.2042 67.2081C47.4973 67.6821 47.6438 68.2251 47.6438 68.837C47.6438 69.4489 47.4973 70.0005 47.2042 70.4745C46.9112 70.9485 46.5061 71.3278 45.9804 71.5949C45.4546 71.8621 44.86 72 44.1963 72ZM44.1963 70.3021C44.4463 70.3021 44.6617 70.2418 44.8513 70.1298C45.0409 70.0177 45.1961 69.854 45.3081 69.6299C45.4202 69.4058 45.4805 69.1472 45.4805 68.837C45.4805 68.5267 45.4288 68.2681 45.3081 68.0527C45.1875 67.8372 45.0409 67.6735 44.8513 67.5614C44.6617 67.4494 44.4376 67.389 44.1963 67.389C43.955 67.389 43.7395 67.4494 43.5499 67.5614C43.3603 67.6735 43.2052 67.8372 43.0845 68.0527C42.9639 68.2681 42.9121 68.5267 42.9121 68.837C42.9121 69.1472 42.9725 69.4144 43.0845 69.6299C43.1966 69.8454 43.3517 70.0177 43.5499 70.1298C43.7482 70.2418 43.955 70.3021 44.1963 70.3021Z" fill="white"/>
<path d="M49.3847 71.8966V64.0105H49.7036L53.4183 70.4659H53.2459L56.9433 64.0105H57.2622V71.8966H56.9002V64.5794H57.0122L53.4269 70.8106H53.22L49.6174 64.5794H49.7553V71.8966H49.3847Z" fill="white"/>
<path d="M61.5111 71.931C61.0716 71.931 60.6924 71.8621 60.3821 71.7242C60.0718 71.5863 59.8305 71.3967 59.6668 71.1467C59.503 70.8968 59.4168 70.6124 59.4168 70.2849C59.4168 70.0005 59.4858 69.7333 59.6237 69.492C59.7616 69.2506 59.9856 69.0524 60.2959 68.9059C60.6062 68.7594 61.0285 68.6904 61.5542 68.6904H63.8209V68.9921H61.5542C60.9164 68.9921 60.4597 69.1127 60.2011 69.3541C59.9339 69.5954 59.8046 69.897 59.8046 70.2676C59.8046 70.6813 59.9598 71.0088 60.2701 71.2502C60.5803 71.4915 61.0026 71.6121 61.5542 71.6121C62.1058 71.6121 62.5454 71.4915 62.8987 71.2502C63.2521 71.0088 63.5193 70.6555 63.7003 70.2073L63.8209 70.4573C63.6744 70.8968 63.3986 71.2588 63.0108 71.526C62.6229 71.7931 62.1317 71.931 61.537 71.931H61.5111ZM63.683 71.8966V70.328L63.6744 68.113C63.6744 67.5355 63.5193 67.096 63.209 66.7943C62.8987 66.4927 62.4506 66.3462 61.8645 66.3462C61.4336 66.3462 61.0457 66.4151 60.6924 66.5616C60.339 66.7082 60.0373 66.8978 59.7788 67.1305L59.5719 66.8633C59.8477 66.6047 60.1925 66.3893 60.5976 66.2427C61.0026 66.0876 61.4249 66.01 61.8731 66.01C62.5712 66.01 63.1056 66.191 63.4762 66.5444C63.8468 66.8978 64.0364 67.4235 64.0364 68.113V71.8966H63.6744H63.683Z" fill="white"/>
<path d="M66.4755 71.8966V66.0531H66.8375V67.6648L66.803 67.5614C66.9581 67.0701 67.2339 66.6909 67.6304 66.4151C68.0268 66.1393 68.5181 66.0014 69.1128 66.0014V66.372H69.0093C68.3371 66.372 67.8027 66.5875 67.4235 67.0184C67.0443 67.4494 66.8461 68.0354 66.8461 68.7852V71.8966H66.4755Z" fill="white"/>
<path d="M72.4913 71.8966L69.8195 66.0532H70.2246L72.7584 71.6725H72.5861L75.1286 66.0532H75.525L72.8532 71.8966H72.4826H72.4913Z" fill="white"/>
</g>
<defs>
<linearGradient id="paint0_linear_693_2" x1="45.808" y1="0.436418" x2="45.808" y2="62.0986" gradientUnits="userSpaceOnUse">
<stop stop-color="#01CBF9"/>
<stop offset="1" stop-color="#028EED"/>
</linearGradient>
<linearGradient id="paint1_linear_693_2" x1="51.6428" y1="0.448156" x2="51.6428" y2="62.0972" gradientUnits="userSpaceOnUse">
<stop stop-color="#01CBF9"/>
<stop offset="1" stop-color="#028EED"/>
</linearGradient>
<linearGradient id="paint2_linear_693_2" x1="23.8477" y1="0.448159" x2="23.8477" y2="62.0972" gradientUnits="userSpaceOnUse">
<stop stop-color="#01CBF9"/>
<stop offset="1" stop-color="#028EED"/>
</linearGradient>
<linearGradient id="paint3_linear_693_2" x1="44.8082" y1="0.448179" x2="44.8082" y2="62.0972" gradientUnits="userSpaceOnUse">
<stop stop-color="#01CBF9"/>
<stop offset="1" stop-color="#028EED"/>
</linearGradient>
<linearGradient id="paint4_linear_693_2" x1="52.0737" y1="0.448198" x2="52.0737" y2="62.0972" gradientUnits="userSpaceOnUse">
<stop stop-color="#01CBF9"/>
<stop offset="1" stop-color="#028EED"/>
</linearGradient>
<linearGradient id="paint5_linear_693_2" x1="48.7987" y1="0.448158" x2="48.7987" y2="62.0972" gradientUnits="userSpaceOnUse">
<stop stop-color="#01CBF9"/>
<stop offset="1" stop-color="#028EED"/>
</linearGradient>
<linearGradient id="paint6_linear_693_2" x1="42.4984" y1="0.448158" x2="42.4984" y2="62.0972" gradientUnits="userSpaceOnUse">
<stop stop-color="#01CBF9"/>
<stop offset="1" stop-color="#028EED"/>
</linearGradient>
<linearGradient id="paint7_linear_693_2" x1="47.5921" y1="0.448168" x2="47.5921" y2="62.0972" gradientUnits="userSpaceOnUse">
<stop stop-color="#01CBF9"/>
<stop offset="1" stop-color="#028EED"/>
</linearGradient>
<linearGradient id="paint8_linear_693_2" x1="33.0266" y1="0.44818" x2="33.0266" y2="62.0972" gradientUnits="userSpaceOnUse">
<stop stop-color="#01CBF9"/>
<stop offset="1" stop-color="#028EED"/>
</linearGradient>
<linearGradient id="paint9_linear_693_2" x1="26.8384" y1="0.448153" x2="26.8384" y2="62.0972" gradientUnits="userSpaceOnUse">
<stop stop-color="#01CBF9"/>
<stop offset="1" stop-color="#028EED"/>
</linearGradient>
<linearGradient id="paint10_linear_693_2" x1="23.6409" y1="0.448144" x2="23.6409" y2="62.0972" gradientUnits="userSpaceOnUse">
<stop stop-color="#01CBF9"/>
<stop offset="1" stop-color="#028EED"/>
</linearGradient>
<linearGradient id="paint11_linear_693_2" x1="30.6564" y1="0.448178" x2="30.6564" y2="62.0972" gradientUnits="userSpaceOnUse">
<stop stop-color="#01CBF9"/>
<stop offset="1" stop-color="#028EED"/>
</linearGradient>
<linearGradient id="paint12_linear_693_2" x1="42.576" y1="0.448175" x2="42.576" y2="62.0972" gradientUnits="userSpaceOnUse">
<stop stop-color="#01CBF9"/>
<stop offset="1" stop-color="#028EED"/>
</linearGradient>
<linearGradient id="paint13_linear_693_2" x1="52.4702" y1="0.448176" x2="52.4702" y2="62.0972" gradientUnits="userSpaceOnUse">
<stop stop-color="#01CBF9"/>
<stop offset="1" stop-color="#028EED"/>
</linearGradient>
<linearGradient id="paint14_linear_693_2" x1="23.0807" y1="0.448155" x2="23.0807" y2="62.0972" gradientUnits="userSpaceOnUse">
<stop stop-color="#01CBF9"/>
<stop offset="1" stop-color="#028EED"/>
</linearGradient>
<linearGradient id="paint15_linear_693_2" x1="27.9675" y1="0.448158" x2="27.9675" y2="62.0972" gradientUnits="userSpaceOnUse">
<stop stop-color="#01CBF9"/>
<stop offset="1" stop-color="#028EED"/>
</linearGradient>
<linearGradient id="paint16_linear_693_2" x1="32.9662" y1="0.448182" x2="32.9662" y2="62.0972" gradientUnits="userSpaceOnUse">
<stop stop-color="#01CBF9"/>
<stop offset="1" stop-color="#028EED"/>
</linearGradient>
<clipPath id="clip0_693_2">
<rect width="75.525" height="72" fill="white"/>
</clipPath>
</defs>
</svg>
