<svg width="48" height="48" viewBox="0 0 48 48" fill="none" xmlns="http://www.w3.org/2000/svg">
<path d="M44.1855 35.187C44.1855 39.0271 40.166 39.0271 38.8447 39.0271H9.1549C7.83398 39.0271 3.81445 39.0271 3.81445 35.187C3.81443 35.0885 3.83381 34.991 3.87149 34.9C3.90917 34.809 3.96441 34.7263 4.03406 34.6566C4.10371 34.587 4.1864 34.5317 4.27741 34.494C4.36842 34.4564 4.46595 34.437 4.56445 34.437H43.4355C43.534 34.4369 43.6316 34.4563 43.7226 34.494C43.8136 34.5316 43.8963 34.5869 43.966 34.6565C44.0357 34.7262 44.0909 34.8089 44.1286 34.8999C44.1662 34.9909 44.1856 35.0885 44.1855 35.187ZM6.64929 30.7317V11.2225C6.64998 10.6189 6.89007 10.0402 7.31689 9.6134C7.74371 9.18658 8.32241 8.94649 8.92603 8.9458H38.6565C39.2601 8.94648 39.8389 9.18655 40.2658 9.61337C40.6927 10.0402 40.9328 10.6189 40.9336 11.2225V30.7317C40.9328 31.3354 40.6927 31.9141 40.2658 32.341C39.8389 32.7679 39.2602 33.008 38.6565 33.0088H8.92603C8.32237 33.008 7.74367 32.7679 7.31686 32.341C6.89004 31.9141 6.64997 31.3353 6.64929 30.7317ZM26.6023 26.261C26.6076 26.7378 26.8007 27.1932 27.1398 27.5285C27.4788 27.8638 27.9364 28.0518 28.4132 28.0518C28.89 28.0518 29.3476 27.8637 29.6866 27.5285C30.0257 27.1932 30.2188 26.7377 30.2241 26.2609V19.9797C30.2139 19.3882 29.688 19.1673 29.1636 19.2297V14.632C29.1636 14.4331 29.0845 14.2423 28.9439 14.1016C28.8032 13.961 28.6125 13.882 28.4136 13.882C28.2147 13.882 28.0239 13.961 27.8832 14.1016C27.7426 14.2423 27.6636 14.4331 27.6636 14.632V19.2297C27.1447 19.1659 26.6082 19.3907 26.6023 19.9797L26.6023 26.261ZM17.358 17.1973C17.3603 17.8593 17.5396 18.5087 17.8772 19.0783C18.2147 19.6478 18.6984 20.1168 19.278 20.4366V26.261C19.278 26.7414 19.4689 27.2021 19.8086 27.5418C20.1482 27.8814 20.6089 28.0723 21.0893 28.0723C21.5697 28.0723 22.0304 27.8814 22.3701 27.5418C22.7098 27.2021 22.9006 26.7414 22.9006 26.261V20.4326C23.4677 20.1097 23.9403 19.6438 24.2713 19.0813C24.6022 18.5188 24.78 17.8794 24.7868 17.2268C24.7936 16.5742 24.6292 15.9312 24.3101 15.3619C23.9909 14.7927 23.5282 14.317 22.9679 13.9823C22.8691 13.9294 22.76 13.8988 22.6482 13.8924C22.5364 13.8861 22.4246 13.9043 22.3205 13.9456C22.2164 13.987 22.1226 14.0505 22.0456 14.1319C21.9687 14.2132 21.9104 14.3104 21.8748 14.4166L21.3904 16.0345H20.6396C20.5391 15.4257 20.3974 14.8243 20.2153 14.2347C20.103 14.0656 19.9282 13.9481 19.7293 13.9078C19.5304 13.8676 19.3236 13.908 19.1545 14.0202C18.607 14.3505 18.1541 14.8164 17.8394 15.373C17.5247 15.9296 17.3589 16.5579 17.358 17.1973Z" fill="#028EED"/>
</svg>
