<svg width="26" height="25" viewBox="0 0 26 25" fill="none" xmlns="http://www.w3.org/2000/svg">
<rect x="0.229486" y="0.20141" width="24.891" height="23.7664" rx="11.8832" stroke="#028EED" stroke-width="0.40282"/>
<path d="M18.8768 8.23074C18.4203 8.43826 17.9282 8.57462 17.4183 8.63984C17.94 8.3256 18.3432 7.82756 18.5329 7.22872C18.0408 7.52518 17.4954 7.73269 16.9202 7.85128C16.4518 7.34138 15.7937 7.04492 15.0467 7.04492C13.6533 7.04492 12.5149 8.1833 12.5149 9.5885C12.5149 9.79008 12.5387 9.98574 12.5802 10.1695C10.4694 10.0628 8.58989 9.04895 7.33885 7.51332C7.11948 7.88685 6.99496 8.3256 6.99496 8.78807C6.99496 9.6715 7.43965 10.4541 8.12742 10.8988C7.70645 10.8988 7.31513 10.7802 6.97125 10.6024V10.6202C6.97125 11.8534 7.84875 12.8851 9.01085 13.1163C8.63775 13.2184 8.24606 13.2326 7.86654 13.1578C8.02758 13.6632 8.34296 14.1055 8.76836 14.4224C9.19376 14.7394 9.70778 14.915 10.2382 14.9247C9.3391 15.6364 8.22465 16.0211 7.07797 16.0156C6.87638 16.0156 6.67479 16.0038 6.47321 15.98C7.59973 16.7034 8.9397 17.1244 10.3745 17.1244C15.0467 17.1244 17.6139 13.2467 17.6139 9.88495C17.6139 9.7723 17.6139 9.66557 17.608 9.55292C18.1061 9.19718 18.5329 8.74657 18.8768 8.23074Z" fill="#028EED"/>
</svg>
