<svg width="48" height="48" viewBox="0 0 48 48" fill="none" xmlns="http://www.w3.org/2000/svg">
<path d="M17.7304 24.2758C19.2351 22.7711 20.1881 20.6645 20.1881 18.3071C20.1881 17.4544 19.9373 16.5015 19.5361 15.4983C19.0847 14.445 18.4828 13.3917 17.7806 12.2883C17.7806 12.2381 17.7304 12.2381 17.7304 12.188C16.2759 9.98109 14.3699 7.82435 12.7649 5.96855L11.7618 4.81494L10.7586 5.96855C7.64893 9.57983 3.33545 14.5453 3.33545 18.3071C3.33545 20.6143 4.28843 22.7209 5.79313 24.2758C7.29783 25.7805 9.40442 26.7334 11.7618 26.7334C14.069 26.7334 16.1756 25.7805 17.7304 24.2758Z" fill="#028EED"/>
<path d="M40.2508 0.30094L40 0L39.7492 0.30094C37.8934 2.45768 35.3354 5.41693 35.3354 7.52351C35.3354 8.82759 35.837 9.98119 36.6897 10.8339C37.5423 11.6865 38.696 12.1881 40 12.1881C41.3041 12.1881 42.4577 11.6865 43.3104 10.8339C44.163 9.98119 44.6646 8.82759 44.6646 7.52351C44.6646 5.41693 42.1066 2.45768 40.2508 0.30094Z" fill="#028EED"/>
<path d="M24.1505 7.27271C23.3981 8.17553 22.5455 9.1285 21.6928 10.1818L20.3887 11.6865C20.9906 12.6395 21.4922 13.5925 21.8934 14.5454C22.4452 15.8495 22.7461 17.1034 22.7461 18.3072C22.7461 21.3166 21.5423 24.0752 19.5361 26.0815C17.5298 28.0878 14.8213 29.2915 11.7618 29.2915C11.0596 29.2915 10.4075 29.2414 9.75551 29.0909C9.50472 29.0407 9.30409 28.9906 9.05331 28.9404C8.953 29.3417 8.85268 29.7429 8.75237 30.1442C8.6019 30.8965 8.50159 31.5987 8.50159 32.3511C8.50159 36.6646 10.2571 40.5768 13.0658 43.4357C15.9248 46.2947 19.837 48 24.1505 48C28.464 48 32.3762 46.2445 35.2351 43.4357C38.0941 40.6269 39.7994 36.6646 39.7994 32.3511C39.7994 25.4796 32.1254 16.652 26.6082 10.232C25.7555 9.1285 24.953 8.17553 24.1505 7.27271Z" fill="#028EED"/>
</svg>
