<svg width="26" height="25" viewBox="0 0 26 25" fill="none" xmlns="http://www.w3.org/2000/svg">
<rect x="0.859552" y="0.20141" width="24.9391" height="23.7664" rx="11.8832" stroke="#028EED" stroke-width="0.40282"/>
<path d="M19.2922 9.08729C19.2213 8.82405 19.0826 8.58405 18.8898 8.39129C18.6971 8.19853 18.4571 8.05978 18.1938 7.98892C17.2244 7.72656 13.329 7.72656 13.329 7.72656C13.329 7.72656 9.43361 7.72656 8.46421 7.98892C8.20097 8.05978 7.96097 8.19853 7.76821 8.39129C7.57545 8.58405 7.4367 8.82405 7.36585 9.08729C7.18484 10.0759 7.097 11.0794 7.10348 12.0844C7.097 13.0895 7.18484 14.0929 7.36585 15.0816C7.4367 15.3448 7.57545 15.5848 7.76821 15.7776C7.96097 15.9703 8.20097 16.1091 8.46421 16.1799C9.43361 16.4423 13.329 16.4423 13.329 16.4423C13.329 16.4423 17.2244 16.4423 18.1938 16.1799C18.4571 16.1091 18.6971 15.9703 18.8898 15.7776C19.0826 15.5848 19.2213 15.3448 19.2922 15.0816C19.4732 14.0929 19.561 13.0895 19.5545 12.0844C19.561 11.0794 19.4732 10.0759 19.2922 9.08729ZM12.0839 13.9521V10.2168L15.3167 12.0844L12.0839 13.9521Z" fill="#028EED"/>
</svg>
