<svg width="134" height="20" viewBox="0 0 134 20" fill="none" xmlns="http://www.w3.org/2000/svg">
<path fill-rule="evenodd" clip-rule="evenodd" d="M8.62899 0.956506C8.62611 2.36048 8.62611 3.76445 8.62611 5.16842L8.63187 5.17419C8.63187 8.3016 8.63444 11.4303 8.637 14.5586V14.5598V14.5611V14.5624V14.5637V14.565V14.5662V14.5675V14.5688V14.5701V14.5714V14.5727V14.5739V14.5752V14.5765C8.63828 16.134 8.63956 17.6914 8.64052 19.2485L8.64071 19.2897C8.64151 19.409 8.64232 19.5294 8.58286 19.6406H8.57998C8.19944 19.7963 7.81889 19.7934 7.43835 19.6435L7.41529 19.629H7.38646C6.95691 19.4186 6.87907 19.0669 6.89348 18.6143C6.9201 17.8624 6.91258 17.1071 6.90508 16.3524V16.3523C6.90283 16.126 6.90058 15.8998 6.89925 15.6737C6.89925 15.5007 6.91654 15.3854 7.10682 15.2788C7.56808 15.0193 7.77565 14.4427 7.62574 13.993C7.47583 13.5404 7.02321 13.2665 6.54753 13.278C5.9796 13.2924 5.58464 13.7047 5.51257 14.2611C5.45203 14.7137 5.79221 15.1807 6.29672 15.3595C6.2996 15.3811 6.30176 15.402 6.30392 15.4229L6.30393 15.4229C6.30609 15.4438 6.30825 15.4647 6.31113 15.4863V18.4961C6.38032 18.6979 6.31402 18.7642 6.0978 18.7699C5.25022 18.7844 4.53526 18.4413 3.86643 17.9714C3.72134 17.8692 3.5864 17.7525 3.45132 17.6358L3.45127 17.6357L3.45124 17.6357L3.4512 17.6357L3.45117 17.6356L3.45114 17.6356L3.4511 17.6356L3.45107 17.6356L3.45104 17.6355L3.45101 17.6355L3.45097 17.6355L3.45094 17.6354L3.45091 17.6354L3.45087 17.6354L3.45084 17.6354C3.39551 17.5875 3.34016 17.5397 3.28408 17.4928C3.24052 17.4286 3.19565 17.3652 3.1508 17.3018L3.15078 17.3017L3.15077 17.3017L3.15075 17.3017L3.15074 17.3017L3.15072 17.3016L3.15071 17.3016L3.1507 17.3016L3.15068 17.3016L3.15067 17.3015L3.15065 17.3015L3.15064 17.3015L3.15062 17.3015C2.91354 16.9662 2.67709 16.6318 2.63831 16.1955C2.6291 16.0942 2.5445 16.0536 2.46087 16.0134C2.43979 16.0033 2.41877 15.9932 2.39903 15.9822C1.19686 15.3191 0.60298 13.9786 0.922983 12.6438C0.983524 12.3872 1.01524 12.1566 0.773072 11.949C0.626044 11.8222 0.504962 11.6434 0.427123 11.4647C-0.215765 10.0146 -0.135043 8.59907 0.683702 7.23546C0.692484 7.22082 0.701207 7.20577 0.710027 7.19055L0.710046 7.19052C0.788082 7.05584 0.87376 6.90798 1.07578 6.91834C1.57164 7.28735 1.54281 7.73709 1.28335 8.2243C1.2574 8.27042 1.22857 8.3252 1.22857 8.37709C1.22513 8.69023 1.19476 9.00064 1.16434 9.31158C1.11831 9.78212 1.07215 10.2539 1.11902 10.7382C1.28623 12.4535 1.8484 13.9843 2.9266 15.3249C3.09093 15.5296 3.17165 15.7141 3.15147 15.9851C3.10823 16.5184 3.51472 17.0027 4.02211 17.0806C4.60445 17.167 5.07725 16.8557 5.22428 16.2849V16.0225C5.43473 15.2788 4.53238 14.7079 3.89814 14.9501C3.63868 15.0481 3.51472 14.953 3.37345 14.7685C2.84876 14.0766 2.45669 13.3155 2.1857 12.4939C1.72731 11.1072 1.71002 9.69746 2.02137 8.27907C2.06173 8.09168 2.15687 8.02826 2.32119 8.16664C2.33246 8.17621 2.34339 8.18633 2.35434 8.19647C2.39943 8.23822 2.44475 8.2802 2.51435 8.28484C2.52588 8.38285 2.59795 8.44916 2.66714 8.49529C2.94678 8.69133 2.94967 8.93637 2.88912 9.25061C2.71615 10.153 2.77381 11.0409 3.15723 11.8913C3.24372 12.0787 3.22066 12.2344 3.11111 12.4218C2.84588 12.8686 3.01597 13.5144 3.43688 13.7796C3.88949 14.0651 4.34211 14.0506 4.73995 13.7364C5.12049 13.4366 5.18104 13.0186 5.07149 12.5602C4.9677 12.1335 4.49202 11.8106 4.00481 11.8395C3.77706 11.8539 3.69634 11.7558 3.65598 11.5886C3.61017 11.4036 3.57485 11.2162 3.53964 11.0294C3.51945 10.9224 3.4993 10.8155 3.47724 10.7094C3.43111 10.4874 3.49165 10.4095 3.74247 10.3922C3.92754 10.3785 4.10955 10.3872 4.29154 10.3959H4.29155H4.29157H4.29158H4.2916H4.29161H4.29163H4.29164H4.29165H4.29167H4.29168H4.2917H4.29171H4.29173H4.29174L4.29177 10.3959C4.41587 10.4019 4.53996 10.4078 4.66499 10.4067C5.03401 10.4038 5.40014 10.4038 5.76915 10.4038C5.80819 10.4034 5.84773 10.4019 5.88723 10.4003H5.88725H5.88728H5.88731H5.88734H5.88736H5.88739H5.88742H5.88744H5.88747H5.8875H5.88752H5.88755H5.88757H5.8876C6.16297 10.3896 6.43626 10.3789 6.52447 10.767C6.53308 10.8015 6.56902 10.8311 6.60348 10.8595C6.61517 10.8691 6.62668 10.8786 6.6369 10.8881C7.10682 11.309 7.84484 11.2513 8.21097 10.7699C8.5771 10.2827 8.48196 9.5389 8.00917 9.22178C7.45565 8.84988 6.75222 9.01133 6.43222 9.59079C6.36591 9.70899 6.30825 9.78971 6.16122 9.78971H3.6185C3.54066 9.78971 3.46282 9.78683 3.43976 9.68304C3.37057 9.37746 3.58967 8.88736 3.8722 8.73169L4.00932 8.65572C4.19694 8.55195 4.38382 8.44858 4.56698 8.33961C4.75148 8.22718 4.89851 8.19258 5.10896 8.33961C5.56734 8.65673 6.12374 8.55006 6.50429 8.12339C6.82429 7.76303 6.85889 7.09708 6.53888 6.74249C6.25636 6.42825 5.8787 6.28699 5.45491 6.38212C5.03112 6.47726 4.67941 6.74825 4.65346 7.17492C4.62463 7.63618 4.37382 7.80627 4.02787 7.96195C3.94411 7.99956 3.86642 8.05035 3.78881 8.10109C3.73553 8.13592 3.6823 8.17072 3.62715 8.20123C3.43399 8.31078 3.25237 8.36267 3.10534 8.11186C3.04192 8.00231 2.93813 7.90718 2.80552 7.85817C2.80264 7.84087 2.79111 7.83222 2.77381 7.83222C2.74498 7.73132 2.67002 7.65925 2.5893 7.60447C2.34426 7.43438 2.31543 7.23546 2.46245 6.98177C2.53582 6.85577 2.5986 6.72359 2.66153 6.5911L2.66153 6.59109C2.71235 6.4841 2.76327 6.3769 2.81994 6.27257C3.09669 5.75942 3.40516 5.28662 4.11724 5.45671C4.15296 5.46465 4.1914 5.45756 4.22976 5.4505L4.22978 5.45049C4.24715 5.44729 4.2645 5.44409 4.28157 5.4423L6.34285 5.45671L6.35218 5.46854C6.36976 5.49066 6.38784 5.51342 6.39762 5.54032C6.65708 6.25816 7.46718 6.45708 8.05818 6.01311C8.53962 5.64987 8.53962 4.79365 8.20232 4.42752C7.83619 4.02679 7.07222 3.94896 6.63114 4.42752C6.59437 4.46789 6.563 4.51783 6.53074 4.5692C6.43399 4.72324 6.32912 4.89022 6.04591 4.8513C5.78821 4.81727 5.52505 4.82423 5.26102 4.83122C5.05542 4.83667 4.84929 4.84212 4.64481 4.82824C4.57174 4.82343 4.48584 4.84364 4.4009 4.86362C4.23118 4.90354 4.06534 4.94255 4.01346 4.77923C3.96845 4.63442 4.12269 4.53079 4.27872 4.42596C4.35255 4.37635 4.42678 4.32648 4.48049 4.27184L4.48593 4.26623C4.57992 4.1693 4.69129 4.05444 4.85815 4.14211C5.1868 4.3122 5.47509 4.2286 5.79798 4.07004C6.34734 3.79954 6.32484 3.33483 6.30191 2.86115L6.2996 2.81309C6.28231 2.49021 5.93347 2.16444 5.53852 2.06354C4.79473 1.87327 4.16337 2.45561 4.21526 3.29166C4.21652 3.31089 4.21832 3.3297 4.22008 3.34815C4.23049 3.45688 4.23969 3.55301 4.12877 3.64913C3.16012 4.47364 2.38173 5.44518 1.86281 6.61275C1.79362 6.77131 1.75326 6.78573 1.612 6.65888C1.11614 6.21203 1.1392 5.65275 1.27181 5.0877C1.42749 4.43328 1.75903 3.87112 2.26642 3.40985C2.57777 3.12445 2.88624 2.86499 3.33886 2.88805C3.45706 2.89381 3.56661 2.89381 3.56661 2.72661C3.56173 2.42431 3.68879 2.16325 3.81531 1.90332L3.81531 1.90331C3.8384 1.85586 3.86148 1.80845 3.88373 1.76084C3.89526 1.74642 3.90102 1.72912 3.89526 1.70894C3.97021 1.69453 4.03364 1.66282 4.02499 1.56768C4.0709 1.56768 4.10219 1.54026 4.13487 1.51162C4.14323 1.50429 4.15168 1.49689 4.16049 1.48984C4.77455 0.991101 5.4405 0.676865 6.25924 0.904614C6.37456 0.936326 6.46969 0.921912 6.55042 0.812361C6.60624 0.737287 6.67106 0.66864 6.7363 0.599554C6.76876 0.565174 6.80133 0.530686 6.83294 0.495242C7.35763 0.227133 7.89097 0.100285 8.45025 0.388575C8.48564 0.40523 8.51352 0.433912 8.54147 0.462679C8.55223 0.473748 8.563 0.484829 8.57421 0.495242C8.61458 0.645153 8.62899 0.797947 8.62899 0.956506ZM17.0782 12.0874C17.8796 11.1994 18.041 10.1356 17.894 8.99113C17.8868 8.77423 17.8297 8.56752 17.7725 8.36036C17.7384 8.23711 17.7043 8.1137 17.6807 7.98788L17.6764 7.95617L17.672 7.92446C17.5966 7.80944 17.5315 7.68844 17.4664 7.56726C17.3748 7.39687 17.2831 7.22612 17.1618 7.07112C17.0464 6.92121 16.9773 6.86643 16.7985 7.01346C16.4295 7.31616 16.4209 7.39112 16.5333 7.85527C16.8331 9.11509 16.9542 10.3807 16.6976 11.6722C16.5045 12.6553 16.1527 13.5721 15.654 14.434L15.5995 14.5295C15.4272 14.8319 15.2505 15.1421 15.0054 15.3768C14.8004 15.5733 14.8005 15.7589 14.8007 15.9815L14.8007 15.9995C14.7949 16.8586 13.9444 17.3429 13.192 16.9422C12.7106 16.6856 12.5924 15.962 12.748 15.5757C12.9441 15.0913 13.4688 14.7771 13.9617 14.9357C14.3135 15.0481 14.4662 14.9299 14.6594 14.6647C15.9077 12.9465 16.3286 11.0351 16.0691 8.94788C16.054 8.82133 16.01 8.70462 15.9659 8.58773C15.9176 8.45966 15.8692 8.33137 15.8587 8.18968C15.8472 8.01671 15.7232 8.09166 15.6482 8.15797C15.4822 8.3 15.3194 8.44369 15.1562 8.58778L15.1562 8.58779L15.1562 8.5878L15.1562 8.58781L15.1562 8.58782L14.9996 8.7259V9.0632V9.06897C15.2072 9.7378 15.1956 10.4066 15.0054 11.0755L15.0053 11.0755C14.9996 11.1187 14.9938 11.162 14.9881 11.2023C14.9794 11.3436 14.9621 11.482 14.867 11.5944C14.8554 11.6117 14.8381 11.6203 14.818 11.6174C14.7401 11.9057 14.6998 12.1681 14.8526 12.4737C15.1091 12.9897 14.867 13.647 14.3711 13.8603C13.9127 14.0593 13.2929 14.0103 12.9614 13.4221C12.5924 12.7648 13.0104 11.8942 13.7715 11.8711C14.152 11.8596 14.2702 11.6895 14.3394 11.3811C14.3612 11.2868 14.3909 11.1936 14.4207 11.1002C14.4383 11.0451 14.456 10.9898 14.472 10.9342C14.492 10.6691 14.5021 10.535 14.4399 10.4673C14.3763 10.398 14.2373 10.398 13.956 10.398C13.5943 10.398 13.2313 10.3954 12.8688 10.3928C12.688 10.3916 12.5074 10.3903 12.3271 10.3893C12.2895 10.3903 12.252 10.3932 12.2145 10.3961H12.2145H12.2145H12.2145H12.2144H12.2144H12.2144H12.2144H12.2144H12.2144H12.2144H12.2144H12.2143H12.2143H12.2143H12.2143C12.1397 10.4019 12.0656 10.4076 11.9927 10.398C11.7477 10.372 11.592 10.4441 11.4623 10.6805C11.2259 11.1158 10.7646 11.2859 10.3293 11.1533C9.82477 11.0005 9.51053 10.5969 9.51053 10.101C9.51053 9.65419 9.82765 9.21023 10.237 9.08338C10.7156 8.93347 11.2403 9.11221 11.4796 9.55329C11.6006 9.77239 11.7477 9.80987 11.9639 9.80699C12.4726 9.80081 12.9828 9.80199 13.4924 9.80317H13.4927H13.493H13.4933H13.4936H13.4939H13.4942H13.4945H13.4948H13.4952H13.4955H13.4958H13.4961H13.4964H13.4967H13.497C13.6991 9.80364 13.9012 9.80411 14.103 9.80411C14.521 9.80411 14.521 9.80411 14.4662 9.39185C14.4605 9.34765 14.4624 9.30344 14.4643 9.25924C14.4653 9.23714 14.4662 9.21503 14.4662 9.19293C14.4374 9.01707 14.3826 8.85563 14.201 8.77779L13.9512 8.64754C13.7077 8.52071 13.4635 8.39347 13.2208 8.26464C13.0853 8.19256 12.9816 8.20986 12.8547 8.30212C12.4511 8.59905 12.0244 8.59041 11.5314 8.24734C11.1278 7.96482 11.1538 7.52085 11.1999 7.09995C11.2345 6.77994 11.6929 6.44553 12.1051 6.38499C12.6961 6.30138 13.2843 6.75112 13.3073 7.34499C13.316 7.60157 13.4226 7.72554 13.6302 7.82644C13.8608 7.93887 14.0857 8.05995 14.3019 8.19545C14.4864 8.30788 14.6306 8.33959 14.7891 8.14932C14.9448 7.96193 15.1149 7.77454 15.3138 7.64193C15.6338 7.4286 15.5935 7.20373 15.4436 6.90679C15.2245 6.46859 14.9852 6.04481 14.7228 5.63255C14.6421 5.5057 14.547 5.45381 14.3971 5.45381C13.538 5.45958 12.6788 5.45669 11.8226 5.45381C11.6612 5.45381 11.5805 5.5057 11.494 5.6585C11.1394 6.26102 10.3985 6.40228 9.89107 6.00733C9.49323 5.69597 9.42693 5.28084 9.53071 4.83399C9.62296 4.43038 9.93432 4.19687 10.3264 4.11903C10.7934 4.02389 11.2028 4.17092 11.4478 4.58894C11.5689 4.79651 11.7073 4.85705 11.9264 4.85417C12.2547 4.84936 12.5831 4.84901 12.9114 4.84865C13.1741 4.84837 13.4367 4.84808 13.6994 4.84552C13.7208 4.84552 13.7444 4.84894 13.7683 4.85241L13.7683 4.85241C13.8376 4.86247 13.9102 4.873 13.9444 4.80228C13.9848 4.71751 13.9249 4.67372 13.8655 4.63035L13.8655 4.63034C13.84 4.61176 13.8147 4.59326 13.7974 4.57164C13.5408 4.23723 13.2352 4.0902 12.7913 4.22858C12.4482 4.33813 11.9293 4.09308 11.6871 3.57993C11.5142 3.21668 11.5718 2.76983 11.8601 2.46424C12.2003 2.101 12.7163 1.95397 13.0767 2.11541C13.5495 2.32587 13.7571 2.70353 13.6965 3.28011C13.6792 3.4502 13.7196 3.57416 13.8522 3.68948C14.7459 4.45921 15.4724 5.35868 15.9884 6.42535L15.9948 6.43878C16.0484 6.55231 16.1157 6.69468 16.2709 6.6531C16.4872 6.59832 16.6169 6.41958 16.6832 6.2149C16.768 5.95845 16.7549 5.69458 16.7417 5.43074V5.43072C16.7366 5.32679 16.7314 5.22286 16.7322 5.11939L16.712 4.90894C16.5962 4.78902 16.5362 4.63758 16.4766 4.48694L16.4766 4.48693C16.4516 4.4239 16.4267 4.36102 16.3978 4.30065C16.1345 3.7494 15.6834 3.37295 15.2305 2.99509L15.161 2.93704C15.1466 2.94281 15.138 2.93992 15.1293 2.92839H15.0947C14.645 2.93127 14.3019 2.8419 14.3048 2.26532C14.3048 2.13756 14.2284 2.00979 14.1515 1.88111C14.1156 1.82106 14.0795 1.76081 14.0511 1.70028L14.0396 1.67721C13.881 1.58208 13.7484 1.461 13.6417 1.3082C13.0219 0.936308 12.3819 0.662433 11.6352 0.890182C11.4273 0.954816 11.4001 0.803045 11.3749 0.661837L11.3729 0.650901C11.2806 0.63937 11.2057 0.599009 11.1711 0.506756C11.0587 0.503873 10.9808 0.44045 10.9116 0.362611L10.7819 0.345314C10.7415 0.353963 10.7156 0.345314 10.7098 0.299188C10.632 0.304953 10.557 0.293422 10.4994 0.232881C10.4792 0.244412 10.4619 0.24153 10.4475 0.227115C10.3365 0.227115 10.2262 0.228557 10.1159 0.229998C10.0057 0.231439 9.8954 0.232881 9.78441 0.232881C9.7527 0.290539 9.70369 0.293422 9.64603 0.28189C9.61432 0.353963 9.55089 0.37126 9.4817 0.377026C9.33467 0.561531 9.31161 0.771983 9.31161 1.00261C9.31276 3.40659 9.31299 5.8101 9.31323 8.21351V8.21358V8.21365V8.21372V8.21379V8.21386V8.21393V8.21399V8.21406V8.21413V8.2142V8.21427V8.21434V8.21441V8.21447V8.21454V8.21778C9.31357 11.8224 9.31392 15.4268 9.31738 19.0323C9.31738 19.0818 9.30991 19.1346 9.3023 19.1884C9.27893 19.3538 9.25427 19.5282 9.44134 19.6434C9.72675 19.8193 10.0352 19.7962 10.3466 19.7097C10.4933 19.6696 10.6157 19.5871 10.7381 19.5046L10.7381 19.5045L10.7381 19.5045L10.7381 19.5045L10.7382 19.5045L10.7382 19.5045L10.7382 19.5045L10.7383 19.5044L10.7383 19.5044L10.7383 19.5044L10.7383 19.5044L10.7384 19.5044L10.7384 19.5044L10.7384 19.5043C10.8179 19.4507 10.8975 19.3971 10.9837 19.3552C10.9895 19.3321 11.0068 19.3206 11.0298 19.3177C11.0694 18.7309 11.0646 18.1442 11.0598 17.5566V17.5566C11.0572 17.2463 11.0547 16.9359 11.0587 16.625C11.0625 16.3444 11.0612 16.0638 11.0599 15.7832C11.0593 15.6429 11.0587 15.5026 11.0587 15.3623C11.0241 15.3393 10.9895 15.3169 10.9549 15.2946C10.9203 15.2722 10.8857 15.2499 10.8511 15.2268C10.5368 15.1086 10.3812 14.8665 10.3293 14.5494C10.3004 14.4167 10.2976 14.2841 10.3293 14.1515C10.4273 13.6067 10.8165 13.2751 11.3614 13.2694C11.8947 13.2636 12.3185 13.6384 12.4309 14.2207C12.5174 14.6676 12.1859 15.1605 11.6641 15.3595L11.6468 15.8928V16.429V17.4957V18.0319V18.1674C11.6468 18.2859 11.6493 18.4031 11.6519 18.5207V18.5207V18.5207V18.5208V18.5208V18.5208V18.5209V18.521V18.521V18.5211V18.5212V18.5212V18.5213V18.5213V18.5214V18.5215C11.6532 18.581 11.6544 18.6407 11.6554 18.7007C11.6727 18.7151 11.6785 18.7353 11.6727 18.7584C12.2544 18.843 12.7843 18.6509 13.314 18.4589L13.4025 18.4269L13.4969 18.366C13.5768 18.3144 13.6561 18.2632 13.7369 18.2135C14.4864 17.7436 15.1466 17.2016 15.3225 16.2618C15.3427 16.1465 15.4147 16.0686 15.5272 16.0196C16.1009 15.7688 16.4699 15.3047 16.761 14.7771C17.1416 14.0881 17.2511 13.3558 17.0464 12.5832C17.0411 12.5636 17.0352 12.544 17.0293 12.5244C16.9876 12.3852 16.9453 12.244 17.0868 12.0874H17.0782ZM11.666 18.7596V18.7555H11.6619L11.666 18.7596ZM10.8664 14.0881L10.8657 14.0901L10.8635 14.091L10.8664 14.0881ZM10.8657 14.0901C10.9018 14.0758 10.9209 14.0556 10.9068 14.016C10.9217 14.0067 10.936 13.9968 10.9502 13.9869C10.9799 13.9663 11.0091 13.9461 11.0423 13.9324C11.296 13.8286 11.5497 13.7969 11.7399 14.0333C11.887 14.2121 11.8812 14.4283 11.7371 14.6186C11.5525 14.8665 11.3133 14.8636 11.0567 14.7483C11.0443 14.743 11.0309 14.7409 11.0171 14.7388C11.0083 14.7375 10.9993 14.7361 10.9904 14.7339C10.8945 14.6642 10.8777 14.5628 10.8609 14.4618C10.8499 14.3956 10.8389 14.3296 10.8059 14.2726C10.8258 14.2099 10.8458 14.15 10.8657 14.0901ZM13.2562 16.0023C13.2533 15.7227 13.4897 15.4834 13.7549 15.4892C13.9452 15.4949 14.2652 15.7919 14.2565 15.9533C14.2392 16.2532 14.0173 16.4895 13.7463 16.4895C13.4839 16.4924 13.2562 16.2676 13.2562 16.0023ZM12.6822 2.64009C12.3939 2.63433 12.1835 2.8419 12.1806 3.14172C12.1806 3.41559 12.4083 3.62316 12.7053 3.62028C12.9647 3.6174 13.1406 3.42424 13.1406 3.14172C13.1406 2.85054 12.9561 2.64874 12.6793 2.64298L12.6822 2.64009ZM10.4916 5.63543C10.2465 5.61236 10.0476 5.37885 10.0649 5.1338L10.062 5.13092C10.0822 4.85993 10.3186 4.63794 10.5666 4.65524C10.826 4.67254 11.0653 4.95218 11.0365 5.20587C11.0105 5.45092 10.7453 5.65849 10.4916 5.63543ZM11.7892 7.42571C11.7892 7.7313 11.9477 7.90139 12.2504 7.91292C12.533 7.92445 12.729 7.72842 12.729 7.44013C12.729 7.1749 12.5128 6.9385 12.262 6.92985C12.014 6.9212 11.7892 7.1576 11.7892 7.42283V7.42571ZM7.38122 4.67254C7.65221 4.67254 7.8742 4.88299 7.87708 5.14245V5.14534C7.88285 5.42209 7.68393 5.63255 7.41293 5.64119C7.15635 5.64696 6.90554 5.39615 6.89978 5.12516C6.89689 4.93488 7.17365 4.67254 7.38122 4.67254ZM5.29949 3.6174C5.52724 3.61164 5.83283 3.33488 5.8213 3.13884C5.80688 2.90244 5.52436 2.6401 5.28219 2.63722C5.00832 2.63722 4.80651 2.87073 4.82093 3.17632C4.83246 3.43001 5.04291 3.62317 5.30237 3.6174H5.29949ZM4.74579 16.083L4.74579 16.083L4.72817 16.1047C4.53257 16.3456 4.33974 16.583 3.97029 16.4319C3.77713 16.3512 3.67335 16.0225 3.76849 15.8005C3.87515 15.5555 4.19516 15.4142 4.40273 15.5439C4.57858 15.6535 4.74003 15.7948 4.76597 16.0254C4.75732 16.0427 4.75156 16.0629 4.74579 16.083ZM7.07767 14.3303C7.07478 14.0852 6.85568 13.8748 6.60199 13.8719C6.33388 13.8661 6.10613 14.0852 6.10901 14.3447C6.10901 14.5926 6.33099 14.8088 6.57892 14.8117C6.84703 14.8117 7.08055 14.5868 7.07767 14.3303ZM10.5237 10.5882C10.2527 10.5335 10.0509 10.2654 10.1143 10.0001C10.1749 9.74355 10.3479 9.59941 10.6217 9.61959C10.9071 9.63977 11.0945 9.88481 11.0571 10.1789C11.0512 10.2295 11.0322 10.2787 11.0134 10.3276C11.0044 10.3511 10.9954 10.3745 10.9879 10.398C10.9763 10.4182 10.9677 10.4383 10.959 10.4585C10.9098 10.4723 10.8635 10.4959 10.8171 10.5195C10.7277 10.5651 10.6376 10.611 10.5237 10.5882ZM13.9023 12.416C13.6342 12.4045 13.4122 12.6092 13.4007 12.8773C13.3891 13.1829 13.5736 13.3789 13.8821 13.3875C14.1444 13.3962 14.378 13.1742 14.3808 12.9119C14.3837 12.6495 14.1704 12.4275 13.8994 12.416H13.9023ZM4.06828 12.416C4.30468 12.4189 4.5555 12.6899 4.54685 12.9263L4.54396 12.9292C4.53532 13.1512 4.27585 13.3991 4.05675 13.3991C3.78864 13.3933 3.55801 13.1281 3.56666 12.834C3.57243 12.6063 3.80882 12.4103 4.06828 12.416ZM6.16458 7.44878C6.16458 7.1749 5.95413 6.95292 5.69178 6.95003C5.4352 6.95003 5.22187 7.18067 5.22763 7.45454C5.2334 7.73995 5.40349 7.87833 5.66584 7.90427C5.93971 7.93022 6.16746 7.71112 6.16746 7.44878H6.16458ZM7.34938 9.65996C7.6665 9.66284 7.84813 9.82716 7.84236 10.1097C7.83948 10.3576 7.62038 10.5911 7.38398 10.5911C7.13605 10.594 6.891 10.3547 6.891 10.1126C6.89389 9.84446 7.08127 9.65996 7.34938 9.65996Z" fill="url(#paint0_linear_1431_1502)"/>
<path d="M22.0195 15.7174V4.11777H24.7198L29.5245 12.003H28.1046L32.7825 4.11777H35.4828L35.5208 15.7174H32.5036L32.4656 8.70693H32.9727L29.4738 14.5765H28.0159L24.4155 8.70693H25.0494V15.7174H22.0195Z" fill="#1E1E1E"/>
<path d="M40.503 15.8696C39.7804 15.8696 39.1719 15.7428 38.6775 15.502C38.1831 15.2611 37.8028 14.9315 37.5365 14.5131C37.2703 14.0948 37.1436 13.6257 37.1436 13.106C37.1436 12.5482 37.283 12.0791 37.5619 11.6734C37.8408 11.2678 38.2718 10.9635 38.8677 10.748C39.4635 10.5325 40.2115 10.4311 41.1369 10.4311H43.254V12.0664H41.5679C41.0608 12.0664 40.7059 12.1552 40.503 12.32C40.3002 12.4848 40.1988 12.713 40.1988 12.9792C40.1988 13.2454 40.3002 13.4736 40.5157 13.6384C40.7312 13.8032 41.0101 13.892 41.3778 13.892C41.72 13.892 42.037 13.8032 42.3159 13.6384C42.5948 13.4736 42.8103 13.2074 42.9371 12.8524L43.3681 14.006C43.2033 14.6272 42.8737 15.0963 42.4046 15.4005C41.9356 15.7048 41.289 15.8696 40.503 15.8696ZM43.1526 15.7175V14.0441L42.9371 13.6257V10.5452C42.9371 10.0507 42.7849 9.67043 42.4807 9.39153C42.1764 9.12531 41.6947 8.98586 41.0355 8.98586C40.6044 8.98586 40.1734 9.04924 39.7297 9.18869C39.286 9.32814 38.9184 9.5183 38.6014 9.75917L37.5365 7.61671C38.0436 7.2871 38.6521 7.03356 39.3621 6.8434C40.072 6.66592 40.7819 6.57718 41.4919 6.57718C42.9497 6.57718 44.078 6.90679 44.8767 7.57868C45.6754 8.25058 46.081 9.29011 46.081 10.7226V15.7048H43.1526V15.7175Z" fill="#1E1E1E"/>
<path d="M52.9007 15.8696C51.8358 15.8696 50.9104 15.6667 50.1244 15.2611C49.3384 14.8554 48.7172 14.3103 48.2862 13.6004C47.8551 12.9031 47.627 12.1044 47.627 11.2044C47.627 10.3043 47.8425 9.51829 48.2608 8.80836C48.6918 8.11111 49.275 7.56599 50.023 7.173C50.7709 6.78 51.6203 6.58984 52.5584 6.58984C53.4458 6.58984 54.2445 6.76732 54.9798 7.12229C55.7024 7.47725 56.2855 8.00969 56.7166 8.70694C57.1476 9.40419 57.3631 10.2536 57.3631 11.2424C57.3631 11.3565 57.3631 11.4833 57.3504 11.6227C57.3377 11.7622 57.3251 11.9016 57.3124 12.0157H50.2004V10.355H55.639L54.4473 10.824C54.4473 10.4184 54.3839 10.0634 54.2191 9.75915C54.0543 9.4549 53.8388 9.22671 53.5599 9.0619C53.281 8.8971 52.9514 8.80836 52.5711 8.80836C52.1908 8.80836 51.8612 8.8971 51.5823 9.0619C51.3034 9.22671 51.0878 9.46758 50.923 9.77183C50.7709 10.0761 50.6949 10.431 50.6949 10.8367V11.3184C50.6949 11.7622 50.7836 12.1425 50.9738 12.4594C51.1512 12.7763 51.4175 13.0299 51.7597 13.1947C52.102 13.3595 52.5077 13.4482 52.9894 13.4482C53.4331 13.4482 53.8135 13.3848 54.1304 13.2581C54.4473 13.1313 54.7516 12.9411 55.0685 12.6749L56.7292 14.399C56.2982 14.8808 55.7658 15.2357 55.1446 15.4893C54.5107 15.7428 53.7754 15.8569 52.9134 15.8569L52.9007 15.8696Z" fill="#1E1E1E"/>
<path d="M62.092 15.8696C61.3314 15.8696 60.5834 15.7808 59.8608 15.6034C59.1382 15.4259 58.555 15.2104 58.1113 14.9441L59.0494 12.789C59.4678 13.0426 59.9622 13.2454 60.52 13.3975C61.0778 13.5496 61.6356 13.6257 62.1807 13.6257C62.7259 13.6257 63.0808 13.575 63.2837 13.4609C63.4865 13.3468 63.5879 13.1947 63.5879 13.0172C63.5879 12.8397 63.4865 12.713 63.2963 12.6242C63.1062 12.5355 62.8526 12.4721 62.5357 12.4341C62.2188 12.3833 61.8765 12.3453 61.4962 12.2819C61.1158 12.2312 60.7482 12.1551 60.3552 12.0537C59.9622 11.9523 59.6199 11.8129 59.3157 11.6227C58.9987 11.4326 58.7452 11.1663 58.5677 10.8367C58.3776 10.5071 58.2888 10.0888 58.2888 9.58167C58.2888 9.0112 58.4536 8.49143 58.7959 8.04773C59.1382 7.60402 59.6326 7.24906 60.2791 6.98284C60.9257 6.72929 61.7244 6.58984 62.6625 6.58984C63.2963 6.58984 63.9302 6.65323 64.5767 6.78C65.2233 6.90678 65.7684 7.09693 66.2121 7.35048L65.274 9.49293C64.8303 9.23939 64.3866 9.0619 63.9429 8.97316C63.4992 8.88442 63.0808 8.83371 62.6878 8.83371C62.1554 8.83371 61.7877 8.8971 61.5722 9.01119C61.3567 9.13796 61.2553 9.27742 61.2553 9.4549C61.2553 9.63238 61.344 9.77183 61.5342 9.86057C61.7244 9.94931 61.9779 10.0254 62.2822 10.0761C62.5991 10.1268 62.9414 10.1775 63.3217 10.2282C63.702 10.2789 64.0696 10.355 64.4626 10.4564C64.843 10.5578 65.1979 10.6973 65.5022 10.9001C65.8191 11.0903 66.0727 11.3565 66.2501 11.6734C66.4403 12.003 66.529 12.4214 66.529 12.9285C66.529 13.4863 66.3642 13.9807 66.0219 14.4244C65.6797 14.8681 65.1852 15.223 64.526 15.4893C63.8668 15.7555 63.0555 15.8823 62.0793 15.8823L62.092 15.8696Z" fill="#1E1E1E"/>
<path d="M66.9482 9.42956V7.07159H73.4644V9.42956H66.9482ZM71.9051 15.8696C70.7514 15.8696 69.864 15.5907 69.2175 15.0202C68.5709 14.4497 68.254 13.5877 68.254 12.4467V4.73898H71.398V12.4087C71.398 12.7256 71.4867 12.9792 71.6642 13.1567C71.8417 13.3342 72.0699 13.4356 72.3488 13.4356C72.7291 13.4356 73.046 13.3468 73.3122 13.1567L74.0855 15.3625C73.8193 15.54 73.4897 15.6668 73.1094 15.7555C72.7291 15.8442 72.3234 15.8823 71.9051 15.8823V15.8696Z" fill="#1E1E1E"/>
<path d="M75.3018 15.7175V6.74198H78.3063V9.3535L77.8626 8.60554C78.1288 7.93364 78.5598 7.42656 79.1556 7.08427C79.7515 6.74198 80.4741 6.57718 81.3235 6.57718V9.40421C81.184 9.37885 81.0572 9.36618 80.9558 9.36618C80.8544 9.36618 80.7403 9.36618 80.6135 9.36618C79.967 9.36618 79.4599 9.54365 79.0542 9.88594C78.6612 10.2282 78.4584 10.7987 78.4584 11.5847V15.7048H75.3144L75.3018 15.7175Z" fill="#1E1E1E"/>
<path d="M87.0279 15.8696C86.0391 15.8696 85.1771 15.6668 84.4164 15.2738C83.6558 14.8808 83.06 14.323 82.6162 13.6257C82.1852 12.9285 81.957 12.1171 81.957 11.2171C81.957 10.317 82.1725 9.50563 82.6162 8.82106C83.0473 8.12381 83.6558 7.57869 84.4164 7.18569C85.1771 6.7927 86.0518 6.60254 87.0279 6.60254C88.0041 6.60254 88.8915 6.7927 89.6521 7.18569C90.4254 7.57869 91.0213 8.12381 91.4523 8.82106C91.8833 9.5183 92.0988 10.317 92.0988 11.2171C92.0988 12.1171 91.8833 12.9285 91.4523 13.6257C91.0213 14.323 90.4254 14.8808 89.6521 15.2738C88.8788 15.6668 88.0041 15.8696 87.0279 15.8696ZM87.0279 13.3722C87.3956 13.3722 87.7125 13.2834 87.9914 13.1186C88.2703 12.9538 88.4985 12.713 88.6633 12.3834C88.8281 12.0537 88.9169 11.6734 88.9169 11.2171C88.9169 10.7607 88.8408 10.3804 88.6633 10.0634C88.4858 9.74649 88.2703 9.50562 87.9914 9.34082C87.7125 9.17601 87.3829 9.08728 87.0279 9.08728C86.673 9.08728 86.356 9.17601 86.0771 9.34082C85.7982 9.50562 85.5701 9.74649 85.3926 10.0634C85.2151 10.3804 85.139 10.7607 85.139 11.2171C85.139 11.6734 85.2278 12.0664 85.3926 12.3834C85.5574 12.7003 85.7856 12.9538 86.0771 13.1186C86.3687 13.2834 86.673 13.3722 87.0279 13.3722Z" fill="#1E1E1E"/>
<path d="M94.6602 15.7174V4.11777H95.1292L100.593 13.613H100.34L105.778 4.11777H106.247V15.7174H105.715V4.95447H105.88L100.606 14.1201H100.302L95.0024 4.95447H95.2053V15.7174H94.6602Z" fill="#1E1E1E"/>
<path d="M112.497 15.7682C111.85 15.7682 111.292 15.6667 110.836 15.4639C110.379 15.2611 110.025 14.9822 109.784 14.6145C109.543 14.2469 109.416 13.8286 109.416 13.3468C109.416 12.9285 109.517 12.5355 109.72 12.1805C109.923 11.8255 110.253 11.534 110.709 11.3185C111.165 11.1029 111.787 11.0015 112.56 11.0015H115.894V11.4452H112.56C111.622 11.4452 110.95 11.6227 110.57 11.9777C110.177 12.3326 109.986 12.7763 109.986 13.3215C109.986 13.93 110.215 14.4117 110.671 14.7667C111.127 15.1216 111.749 15.2991 112.56 15.2991C113.371 15.2991 114.018 15.1216 114.538 14.7667C115.057 14.4117 115.45 13.8919 115.717 13.2327L115.894 13.6004C115.679 14.2469 115.273 14.7793 114.702 15.1723C114.132 15.5653 113.409 15.7682 112.535 15.7682H112.497ZM115.691 15.7175V13.4102L115.679 10.1521C115.679 9.30277 115.45 8.65624 114.994 8.21253C114.538 7.76883 113.878 7.55332 113.016 7.55332C112.382 7.55332 111.812 7.65474 111.292 7.87025C110.772 8.08576 110.329 8.36466 109.948 8.70694L109.644 8.31395C110.05 7.93364 110.557 7.6167 111.153 7.40119C111.749 7.173 112.37 7.0589 113.029 7.0589C114.056 7.0589 114.842 7.32512 115.387 7.84489C115.932 8.36466 116.211 9.13797 116.211 10.1521V15.7175H115.679H115.691Z" fill="#1E1E1E"/>
<path d="M119.799 15.7174V7.12226H120.331V9.49291L120.281 9.34078C120.509 8.61818 120.914 8.06038 121.498 7.65471C122.081 7.24903 122.803 7.0462 123.678 7.0462V7.59133H123.526C122.537 7.59133 121.751 7.90826 121.193 8.54212C120.636 9.17598 120.344 10.038 120.344 11.1409V15.7174H119.799Z" fill="#1E1E1E"/>
<path d="M128.648 15.7175L124.718 7.12231H125.314L129.041 15.3879H128.787L132.527 7.12231H133.11L129.18 15.7175H128.635H128.648Z" fill="#1E1E1E"/>
<defs>
<linearGradient id="paint0_linear_1431_1502" x1="7.36603" y1="0.374158" x2="7.36603" y2="20.9955" gradientUnits="userSpaceOnUse">
<stop stop-color="#01CBF9"/>
<stop offset="1" stop-color="#028EED"/>
</linearGradient>
</defs>
</svg>
