<svg width="196" height="29" viewBox="0 0 196 29" fill="none" xmlns="http://www.w3.org/2000/svg">
<path fill-rule="evenodd" clip-rule="evenodd" d="M12.6999 1.07754C12.6956 3.14387 12.6956 5.21019 12.6956 7.27652L12.7041 7.28501C12.7041 11.8804 12.7079 16.4776 12.7117 21.0742V21.0758V21.0774V21.079V21.0806V21.0822V21.0838V21.0854V21.087V21.0886V21.0902V21.0918V21.0935V21.0951V21.0967C12.7135 23.3978 12.7154 25.6987 12.7168 27.9992L12.7171 28.0598C12.7183 28.2354 12.7195 28.4126 12.632 28.5762H12.6277C12.0677 28.8053 11.5076 28.8011 10.9475 28.5805L10.9136 28.5592H10.8712C10.2389 28.2495 10.1244 27.7319 10.1456 27.0657C10.1848 25.9591 10.1737 24.8475 10.1627 23.7366L10.1627 23.7361C10.1594 23.4032 10.156 23.0705 10.1541 22.7379C10.1541 22.4833 10.1795 22.3136 10.4596 22.1566C11.1385 21.7747 11.444 20.9261 11.2233 20.2642C11.0027 19.5981 10.3365 19.195 9.63645 19.212C8.80058 19.2332 8.2193 19.8399 8.11322 20.6588C8.02412 21.325 8.52479 22.0123 9.26731 22.2754C9.27155 22.3072 9.27473 22.338 9.27792 22.3688C9.2811 22.3995 9.28428 22.4303 9.28852 22.4621V26.8918C9.39036 27.1888 9.29277 27.2864 8.97454 27.2948C7.72711 27.3161 6.67486 26.8111 5.69049 26.1195C5.47695 25.9692 5.27834 25.7975 5.07953 25.6256C4.99787 25.555 4.91618 25.4844 4.83341 25.4152C4.76923 25.3206 4.70311 25.2271 4.63703 25.1337L4.63702 25.1337L4.63701 25.1336L4.637 25.1336L4.63699 25.1336C4.28805 24.6401 3.94006 24.148 3.88298 23.5059C3.86943 23.3568 3.74491 23.297 3.62182 23.2379C3.5908 23.223 3.55986 23.2081 3.53082 23.1919C1.7615 22.216 0.887447 20.243 1.35842 18.2785C1.44752 17.9009 1.49419 17.5615 1.13778 17.256C0.921391 17.0693 0.743186 16.8062 0.628626 16.5432C-0.317555 14.4089 -0.198753 12.3257 1.00625 10.3187C1.01918 10.2972 1.03202 10.275 1.045 10.2526L1.04502 10.2526C1.15987 10.0544 1.28597 9.83675 1.58329 9.852C2.31308 10.3951 2.27065 11.057 1.88879 11.7741C1.8506 11.842 1.80817 11.9226 1.80817 11.9989C1.80311 12.4598 1.75841 12.9167 1.71364 13.3743C1.64589 14.0668 1.57796 14.7612 1.64694 15.4739C1.89303 17.9985 2.72041 20.2515 4.30728 22.2245C4.54913 22.5257 4.66793 22.7973 4.63823 23.1961C4.57459 23.9811 5.17284 24.6939 5.91961 24.8085C6.77669 24.9358 7.47253 24.4775 7.68892 23.6374V23.2513C7.99866 22.1566 6.67061 21.3165 5.73716 21.6729C5.35529 21.8172 5.17284 21.6772 4.96494 21.4056C4.19272 20.3873 3.61568 19.2671 3.21684 18.0579C2.5422 16.017 2.51675 13.9422 2.97499 11.8547C3.03439 11.5789 3.17441 11.4855 3.41626 11.6892C3.43282 11.7033 3.4489 11.7182 3.465 11.7331L3.46503 11.7331C3.5314 11.7946 3.59811 11.8563 3.70053 11.8632C3.71751 12.0074 3.82358 12.105 3.92541 12.1729C4.33698 12.4614 4.34122 12.8221 4.25212 13.2846C3.99754 14.6126 4.0824 15.9194 4.64672 17.1711C4.77401 17.4469 4.74006 17.676 4.57883 17.9518C4.18848 18.6095 4.43881 19.5599 5.05828 19.9503C5.72443 20.3703 6.39058 20.3491 6.97611 19.8866C7.53618 19.4454 7.62528 18.8301 7.46405 18.1555C7.3113 17.5275 6.61121 17.0523 5.89415 17.0947C5.55895 17.116 5.44015 16.9717 5.38075 16.7256C5.31333 16.4533 5.26134 16.1775 5.20953 15.9026C5.17982 15.745 5.15016 15.5877 5.11769 15.4315C5.0498 15.1048 5.1389 14.9902 5.50804 14.9648C5.78052 14.9446 6.0485 14.9574 6.31645 14.9702L6.31649 14.9702C6.49914 14.979 6.68177 14.9877 6.86579 14.986C7.40877 14.9818 7.9475 14.9818 8.49048 14.9818H8.49084C8.54847 14.9812 8.60684 14.9789 8.66514 14.9767L8.66518 14.9767C9.07047 14.9608 9.47268 14.9451 9.6025 15.5164C9.61518 15.5671 9.66807 15.6107 9.71879 15.6525L9.71879 15.6525L9.7188 15.6525C9.736 15.6666 9.75294 15.6806 9.76798 15.6946C10.4596 16.314 11.5458 16.2292 12.0846 15.5206C12.6235 14.8035 12.4835 13.7089 11.7876 13.2421C10.973 12.6948 9.9377 12.9324 9.46673 13.7852C9.36914 13.9592 9.28428 14.078 9.06789 14.078H5.32559C5.21103 14.078 5.09647 14.0738 5.06253 13.921C4.9607 13.4713 5.28316 12.7499 5.69897 12.5208L5.9008 12.409C6.17693 12.2563 6.45197 12.1042 6.72153 11.9438C6.99308 11.7783 7.20947 11.7274 7.51921 11.9438C8.19384 12.4105 9.01273 12.2535 9.5728 11.6256C10.0438 11.0952 10.0947 10.1151 9.62372 9.59318C9.20791 9.1307 8.65208 8.92279 8.02836 9.06281C7.40465 9.20283 6.887 9.60167 6.84882 10.2296C6.80639 10.9085 6.43725 11.1588 5.92809 11.388C5.80481 11.4433 5.69048 11.5181 5.57626 11.5927L5.57624 11.5927C5.49784 11.644 5.41949 11.6952 5.33832 11.7401C5.05404 11.9014 4.78673 11.9777 4.57034 11.6086C4.477 11.4474 4.32425 11.3073 4.12907 11.2352C4.12483 11.2098 4.10786 11.197 4.0824 11.197C4.03997 11.0485 3.92966 10.9424 3.81085 10.8618C3.4502 10.6115 3.40777 10.3187 3.62416 9.94535C3.73214 9.7599 3.82454 9.56536 3.91716 9.37036C3.99195 9.21289 4.06688 9.05512 4.15029 8.90158C4.55761 8.14633 5.01161 7.45048 6.05962 7.70082C6.11219 7.7125 6.16877 7.70207 6.22522 7.69167L6.22523 7.69167C6.2508 7.68695 6.27634 7.68225 6.30147 7.6796L9.3352 7.70082L9.34894 7.71823C9.37481 7.75079 9.40142 7.78427 9.41581 7.82386C9.79768 8.88036 10.99 9.17313 11.8598 8.51971C12.5683 7.9851 12.5683 6.72493 12.0719 6.18608C11.5331 5.59631 10.4087 5.48175 9.75949 6.18608C9.70537 6.2455 9.65922 6.31899 9.61173 6.3946C9.46934 6.62131 9.31499 6.86707 8.89817 6.80979C8.5189 6.7597 8.13158 6.76995 7.74301 6.78024C7.4404 6.78825 7.13702 6.79628 6.83609 6.77585C6.72854 6.76877 6.60211 6.79851 6.47711 6.82792C6.22732 6.88667 5.98323 6.94409 5.90688 6.70372C5.84064 6.49059 6.06764 6.33807 6.29728 6.18378C6.40594 6.11077 6.51519 6.03737 6.59424 5.95696L6.60224 5.94871C6.74057 5.80604 6.90448 5.63699 7.15007 5.76602C7.63377 6.01636 8.05806 5.89331 8.53328 5.65995C9.34181 5.26184 9.3087 4.57789 9.27494 3.88075L9.27155 3.81002C9.24609 3.3348 8.73269 2.85535 8.15141 2.70684C7.05672 2.42681 6.12751 3.28389 6.20389 4.51435C6.20573 4.54264 6.20838 4.57032 6.21098 4.59746L6.21098 4.59749C6.2263 4.75753 6.23984 4.899 6.0766 5.04048C4.65096 6.25397 3.50536 7.68385 2.74162 9.40225C2.63979 9.63561 2.58039 9.65683 2.37249 9.47013C1.6427 8.81247 1.67664 7.98934 1.87182 7.15772C2.10094 6.19456 2.58888 5.36719 3.33564 4.68831C3.79388 4.26826 4.24788 3.88639 4.91402 3.92033C5.08799 3.92882 5.24922 3.92882 5.24922 3.68273C5.24204 3.23782 5.42905 2.85359 5.61524 2.47103C5.64923 2.4012 5.6832 2.33142 5.71594 2.26133C5.73292 2.24012 5.7414 2.21466 5.73292 2.18496C5.84323 2.16374 5.93658 2.11707 5.92385 1.97705C5.99143 1.97705 6.03748 1.93669 6.08557 1.89454L6.08558 1.89454C6.09788 1.88376 6.11031 1.87286 6.12327 1.86249C7.02702 1.12846 8.00715 0.665976 9.21215 1.00117C9.38187 1.04784 9.52189 1.02663 9.64069 0.865396C9.72285 0.754904 9.81825 0.65387 9.91427 0.55219C9.96205 0.501592 10.01 0.450833 10.0565 0.398669C10.8287 0.00407325 11.6137 -0.182617 12.4368 0.241679C12.4889 0.266191 12.5299 0.308404 12.5711 0.350742C12.5869 0.367033 12.6027 0.383343 12.6193 0.398669C12.6787 0.619304 12.6999 0.844181 12.6999 1.07754ZM25.136 17.4596C26.3156 16.1528 26.5532 14.5871 26.3368 12.9027C26.3261 12.5834 26.2421 12.2792 26.1579 11.9743C26.1078 11.7929 26.0576 11.6113 26.0228 11.4261L26.0164 11.3794L26.0101 11.3328C25.899 11.1635 25.8033 10.9854 25.7074 10.8071C25.5726 10.5563 25.4376 10.305 25.2591 10.0769C25.0893 9.85623 24.9875 9.77561 24.7244 9.992C24.1813 10.4375 24.1686 10.5478 24.3341 11.2309C24.7754 13.0851 24.9536 14.9478 24.5759 16.8486C24.2917 18.2955 23.774 19.6448 23.04 20.9134C23.0132 20.96 22.9865 21.0069 22.9597 21.0539C22.7061 21.499 22.4461 21.9555 22.0853 22.3009C21.7837 22.5901 21.7838 22.8633 21.7841 23.1909L21.7841 23.2173C21.7756 24.4817 20.5239 25.1946 19.4165 24.6048C18.7079 24.2272 18.534 23.1622 18.7631 22.5936C19.0516 21.8808 19.8238 21.4183 20.5494 21.6517C21.067 21.8172 21.2919 21.6432 21.5762 21.2528C23.4134 18.724 24.0328 15.9109 23.651 12.839C23.6287 12.6528 23.5639 12.481 23.4991 12.309C23.428 12.1205 23.3568 11.9317 23.3412 11.7231C23.3243 11.4686 23.1418 11.5789 23.0315 11.6765C22.7871 11.8855 22.5476 12.0969 22.3074 12.309L22.3073 12.309L22.3061 12.3101C22.2298 12.3775 22.1535 12.4449 22.0768 12.5123V13.0088V13.0172C22.3823 14.0016 22.3654 14.986 22.0853 15.9703C22.0768 16.034 22.0683 16.0976 22.0599 16.157C22.0471 16.3649 22.0217 16.5686 21.8817 16.7341C21.8647 16.7595 21.8392 16.7723 21.8095 16.768C21.695 17.1923 21.6356 17.5784 21.8604 18.0282C22.2381 18.7877 21.8817 19.7551 21.1519 20.069C20.4772 20.3618 19.565 20.2897 19.0771 19.4241C18.534 18.4567 19.1492 17.1753 20.2693 17.1414C20.8294 17.1244 21.0034 16.8741 21.1052 16.4201C21.1372 16.2813 21.181 16.1443 21.2249 16.0068L21.2249 16.0066C21.2508 15.9255 21.2768 15.8443 21.3004 15.7624C21.3598 14.9732 21.3598 14.9732 20.5409 14.9732C20.0091 14.9732 19.4753 14.9695 18.9423 14.9657H18.9421H18.942H18.9419H18.9418H18.9417H18.9416H18.9415H18.9413H18.9412H18.9411H18.941H18.9409H18.9408H18.9407H18.9405L18.9403 14.9657C18.6745 14.9638 18.4088 14.9619 18.1436 14.9605C18.0882 14.9619 18.0328 14.9662 17.9776 14.9705C17.8678 14.9789 17.7587 14.9874 17.6514 14.9732C17.2908 14.9351 17.0616 15.0411 16.8707 15.3891C16.5228 16.0297 15.8439 16.2801 15.2032 16.0849C14.4607 15.86 13.9982 15.266 13.9982 14.5362C13.9982 13.8786 14.4649 13.2251 15.0674 13.0385C15.7718 12.8178 16.544 13.0809 16.8962 13.7301C17.0744 14.0525 17.2908 14.1077 17.609 14.1034C18.3577 14.0943 19.1086 14.0961 19.8586 14.0978H19.859H19.8595H19.8599H19.8604H19.8608H19.8613H19.8617H19.8622H19.8626H19.8631H19.8635H19.864H19.8644H19.8649H19.8653C20.1628 14.0985 20.4602 14.0992 20.7573 14.0992C21.3725 14.0992 21.3725 14.0992 21.2919 13.4924C21.2834 13.4274 21.2862 13.3623 21.2891 13.2973C21.2905 13.2647 21.2919 13.2322 21.2919 13.1997C21.2495 12.9409 21.1688 12.7033 20.9015 12.5887L20.5337 12.3969C20.1754 12.2103 19.816 12.023 19.4589 11.8334C19.2595 11.7274 19.1068 11.7528 18.9201 11.8886C18.326 12.3256 17.6981 12.3129 16.9725 11.808C16.3785 11.3922 16.4167 10.7388 16.4846 10.1193C16.5355 9.64832 17.2101 9.15614 17.8169 9.06703C18.6867 8.94399 19.5523 9.60589 19.5862 10.4799C19.5989 10.8576 19.7559 11.04 20.0614 11.1885C20.4009 11.354 20.7318 11.5322 21.05 11.7316C21.3216 11.8971 21.5337 11.9438 21.7671 11.6637C21.9962 11.3879 22.2465 11.1121 22.5393 10.917C23.0103 10.603 22.9509 10.272 22.7302 9.83501C22.4078 9.19008 22.0556 8.56636 21.6695 7.95962C21.5507 7.77293 21.4107 7.69656 21.19 7.69656C19.9256 7.70504 18.6612 7.7008 17.4011 7.69656C17.1635 7.69656 17.0447 7.77293 16.9174 7.99781C16.3955 8.88459 15.3051 9.09249 14.5583 8.51121C13.9728 8.05297 13.8752 7.44198 14.0279 6.78432C14.1637 6.1903 14.6219 5.84662 15.199 5.73206C15.8863 5.59204 16.4888 5.80844 16.8495 6.42367C17.0277 6.72916 17.2314 6.81826 17.5538 6.81402C18.0371 6.80695 18.5203 6.80642 19.0035 6.8059C19.3901 6.80548 19.7767 6.80506 20.1632 6.80129C20.1948 6.80129 20.2295 6.80632 20.2647 6.81143C20.3667 6.82624 20.4734 6.84173 20.5239 6.73765C20.5833 6.61289 20.4951 6.54844 20.4077 6.48461C20.3702 6.45726 20.333 6.43002 20.3075 6.39821C19.9299 5.90602 19.4801 5.68963 18.8267 5.8933C18.3218 6.05453 17.5581 5.69388 17.2017 4.93863C16.9471 4.40401 17.0319 3.74635 17.4562 3.2966C17.9569 2.76198 18.7164 2.54559 19.2468 2.7832C19.9426 3.09294 20.2481 3.64877 20.159 4.49736C20.1335 4.74769 20.193 4.93014 20.3881 5.09986C21.7034 6.23273 22.7727 7.55654 23.5322 9.12644L23.5415 9.1462C23.6205 9.31329 23.7195 9.52283 23.948 9.46163C24.2662 9.38101 24.4571 9.11795 24.5547 8.8167C24.6795 8.43926 24.6602 8.05089 24.6409 7.66258V7.66256V7.66254V7.66252V7.6625V7.66248V7.66247V7.66245V7.66243V7.66241V7.66239V7.66237V7.66235V7.66234V7.66232V7.6623C24.6333 7.50943 24.6257 7.35656 24.6269 7.20437L24.5972 6.89464C24.4266 6.71814 24.3384 6.49524 24.2506 6.27353C24.2139 6.18077 24.1772 6.08823 24.1347 5.99937C23.7472 5.18805 23.0832 4.63401 22.4167 4.07788L22.3144 3.99245C22.2932 4.00093 22.2805 3.99669 22.2678 3.97972H22.2168C21.5549 3.98396 21.05 3.85243 21.0543 3.00383C21.0543 2.81579 20.9418 2.62774 20.8286 2.43835C20.7758 2.34998 20.7227 2.26131 20.6809 2.17221L20.6639 2.13827C20.4306 1.99825 20.2354 1.82005 20.0784 1.59517C19.1662 1.04783 18.2242 0.644744 17.1253 0.979939C16.8192 1.07507 16.7793 0.851695 16.7421 0.643871L16.7392 0.627772C16.6034 0.6108 16.4931 0.551399 16.4422 0.415624C16.2767 0.411381 16.1621 0.318036 16.0603 0.203475L15.8694 0.178018C15.81 0.190747 15.7718 0.178018 15.7633 0.11013C15.6487 0.118616 15.5384 0.101644 15.4536 0.0125419C15.4239 0.0295138 15.3984 0.0252708 15.3772 0.00405597C15.2138 0.00405597 15.0515 0.00617746 14.8892 0.00829894C14.7269 0.0104204 14.5647 0.0125419 14.4013 0.0125419C14.3546 0.0974013 14.2825 0.101644 14.1976 0.0846724C14.151 0.190747 14.0576 0.216204 13.9558 0.22469C13.7394 0.49624 13.7055 0.805977 13.7055 1.14541C13.7072 4.6835 13.7075 8.22091 13.7078 11.7582V11.7583V11.7584V11.7585V11.7586V11.7587V11.7588V11.7589V11.759V11.7591V11.7592V11.7593V11.7594V11.7595V11.7596V11.7597C13.7083 17.0665 13.7088 22.3729 13.7139 27.6809C13.7139 27.7538 13.7029 27.8316 13.6918 27.9108C13.6573 28.1541 13.6211 28.4108 13.8964 28.5804C14.3164 28.8393 14.7704 28.8053 15.2287 28.678C15.4446 28.6189 15.6247 28.4975 15.8049 28.3761C15.9221 28.297 16.0393 28.218 16.1664 28.1561C16.1749 28.1222 16.2003 28.1052 16.2343 28.101C16.2926 27.2374 16.2855 26.3739 16.2783 25.5091V25.509C16.2746 25.0524 16.2708 24.5955 16.2767 24.1381C16.2824 23.7251 16.2805 23.3121 16.2786 22.8991C16.2776 22.6926 16.2767 22.4861 16.2767 22.2796C16.2258 22.2457 16.1749 22.2128 16.1239 22.1799C16.073 22.147 16.0221 22.1142 15.9712 22.0802C15.5087 21.9063 15.2796 21.5498 15.2032 21.0831C15.1608 20.8879 15.1565 20.6928 15.2032 20.4976C15.3475 19.6957 15.9203 19.2077 16.7222 19.1992C17.5072 19.1908 18.1309 19.7423 18.2963 20.5994C18.4236 21.2571 17.9357 21.9826 17.1677 22.2754L17.1423 23.0603V23.8495V25.4194V26.2086V26.408C17.1423 26.5827 17.146 26.7555 17.1498 26.9289L17.1498 26.9292L17.1498 26.9294L17.1498 26.9296L17.1498 26.9298C17.1517 27.0173 17.1536 27.1049 17.155 27.193C17.1804 27.2142 17.1889 27.2439 17.1804 27.2779C18.0365 27.4024 18.8165 27.1197 19.596 26.8371L19.7262 26.7899C19.7729 26.76 19.8192 26.7301 19.8653 26.7003L19.8653 26.7003L19.8654 26.7003L19.8654 26.7003L19.8654 26.7002C19.983 26.6243 20.0996 26.549 20.2184 26.4759C21.3216 25.7843 22.2932 24.9867 22.552 23.6034C22.5817 23.4337 22.6878 23.3192 22.8533 23.247C23.6976 22.8779 24.2407 22.1948 24.6693 21.4183C25.2294 20.4042 25.3906 19.3265 25.0893 18.1894C25.0815 18.1606 25.0728 18.1317 25.0642 18.1028C25.0028 17.8979 24.9405 17.6902 25.1487 17.4596H25.136ZM17.1676 27.2777V27.2736H17.1635L17.1676 27.2777ZM15.9924 20.4043L15.9914 20.4072L15.9882 20.4085L15.9924 20.4043ZM15.9914 20.4072C16.0445 20.3861 16.0726 20.3564 16.0518 20.2982C16.0738 20.2845 16.0949 20.2698 16.1158 20.2553C16.1595 20.225 16.2025 20.1952 16.2513 20.1751C16.6246 20.0224 16.998 19.9757 17.2781 20.3236C17.4944 20.5867 17.486 20.9049 17.2738 21.185C17.0023 21.5499 16.6501 21.5456 16.2725 21.3759C16.2543 21.3681 16.2345 21.3651 16.2142 21.362L16.2141 21.362C16.2012 21.36 16.188 21.358 16.1749 21.3547C16.0338 21.2521 16.009 21.103 15.9843 20.9542C15.9681 20.8569 15.952 20.7597 15.9033 20.6758C15.9327 20.5835 15.9621 20.4953 15.9914 20.4072ZM19.5099 23.2216C19.5056 22.81 19.8535 22.4578 20.2439 22.4663C20.5239 22.4748 20.9949 22.9118 20.9822 23.1495C20.9567 23.5907 20.63 23.9386 20.2312 23.9386C19.8451 23.9429 19.5099 23.6119 19.5099 23.2216ZM18.6655 3.55542C18.2412 3.54693 17.9315 3.85243 17.9272 4.2937C17.9272 4.69678 18.2624 5.00227 18.6995 4.99803C19.0813 4.99379 19.3401 4.70951 19.3401 4.2937C19.3401 3.86516 19.0686 3.56815 18.6613 3.55966L18.6655 3.55542ZM15.4408 7.96388C15.0802 7.92994 14.7874 7.58626 14.8129 7.22561L14.8086 7.22136C14.8383 6.82252 15.1863 6.49581 15.5512 6.52127C15.933 6.54673 16.2852 6.9583 16.2428 7.33168C16.2046 7.69233 15.8142 7.99783 15.4408 7.96388ZM17.3502 10.5988C17.3502 11.0485 17.5835 11.2988 18.029 11.3158C18.4449 11.3328 18.7334 11.0443 18.7334 10.62C18.7334 10.2296 18.4152 9.88169 18.046 9.86896C17.6811 9.85623 17.3502 10.2042 17.3502 10.5945V10.5988ZM10.8627 6.54671C11.2615 6.54671 11.5882 6.85645 11.5925 7.23831V7.24256C11.6009 7.64988 11.3082 7.95962 10.9093 7.97235C10.5317 7.98083 10.1626 7.6117 10.1541 7.21286C10.1498 6.93282 10.5572 6.54671 10.8627 6.54671ZM7.79925 4.9938C8.13445 4.98532 8.5842 4.57799 8.56723 4.28947C8.54601 3.94155 8.1302 3.55544 7.77379 3.55119C7.37071 3.55119 7.0737 3.89487 7.09492 4.34463C7.11189 4.71801 7.42163 5.00229 7.80349 4.9938H7.79925ZM7.01432 23.2555C7.00159 23.281 6.9931 23.3107 6.98461 23.3404L6.95868 23.3723C6.67081 23.7268 6.38701 24.0762 5.84326 23.8538C5.55898 23.735 5.40623 23.2513 5.54625 22.9246C5.70324 22.5639 6.17421 22.356 6.4797 22.5469C6.73852 22.7082 6.97613 22.9161 7.01432 23.2555ZM10.4172 20.7607C10.4129 20.4 10.0905 20.0903 9.71707 20.086C9.32248 20.0775 8.98728 20.4 8.99153 20.7819C8.99153 21.1468 9.31823 21.465 9.68313 21.4692C10.0777 21.4692 10.4214 21.1383 10.4172 20.7607ZM15.4875 15.2533C15.0887 15.1727 14.7917 14.7781 14.885 14.3877C14.9741 14.0101 15.2287 13.798 15.6318 13.8277C16.0518 13.8574 16.3276 14.218 16.2725 14.6508C16.2639 14.7252 16.236 14.7978 16.2083 14.8697L16.2083 14.8697C16.1949 14.9043 16.1817 14.9388 16.1706 14.9733C16.1537 15.003 16.1409 15.0327 16.1282 15.0624C16.0557 15.0827 15.9876 15.1173 15.9193 15.1522C15.7877 15.2192 15.6551 15.2868 15.4875 15.2533ZM20.4603 17.9433C20.0657 17.9264 19.739 18.2276 19.722 18.6222C19.705 19.072 19.9766 19.3605 20.4306 19.3732C20.8167 19.3859 21.1603 19.0592 21.1646 18.6731C21.1688 18.287 20.8549 17.9603 20.456 17.9433H20.4603ZM5.98751 17.9433C6.33543 17.9476 6.70457 18.3464 6.69184 18.6943L6.6876 18.6986C6.67487 19.0253 6.293 19.3902 5.97054 19.3902C5.57594 19.3817 5.2365 18.9913 5.24923 18.5586C5.25772 18.2234 5.60564 17.9348 5.98751 17.9433ZM9.07213 10.6327C9.07213 10.2296 8.7624 9.9029 8.37629 9.89866C7.99866 9.89866 7.68468 10.2381 7.69317 10.6412C7.70165 11.0612 7.95199 11.2649 8.3381 11.3031C8.74118 11.3413 9.07638 11.0188 9.07638 10.6327H9.07213ZM10.816 13.8871C11.2827 13.8913 11.55 14.1332 11.5416 14.549C11.5373 14.9139 11.2149 15.2575 10.8669 15.2575C10.502 15.2618 10.1414 14.9096 10.1414 14.5532C10.1456 14.1586 10.4214 13.8871 10.816 13.8871Z" fill="url(#paint0_linear_1191_1647)"/>
<path d="M32.4086 22.8023V5.73019H36.3827L43.4541 17.3355H41.3644L48.2492 5.73019H52.2234L52.2793 22.8023H47.8387L47.7828 12.4844H48.5291L43.3795 21.123H41.2338L35.9349 12.4844H36.8678V22.8023H32.4086Z" fill="white"/>
<path d="M59.612 23.0262C58.5485 23.0262 57.6529 22.8396 56.9252 22.4851C56.1976 22.1306 55.6378 21.6455 55.246 21.0298C54.8542 20.4141 54.6676 19.7237 54.6676 18.9588C54.6676 18.1378 54.8728 17.4475 55.2833 16.8504C55.6938 16.2533 56.3282 15.8056 57.2051 15.4884C58.082 15.1712 59.1828 15.0219 60.5449 15.0219H63.6608V17.4288H61.1792C60.4329 17.4288 59.9105 17.5594 59.612 17.802C59.3134 18.0445 59.1642 18.3804 59.1642 18.7722C59.1642 19.164 59.3134 19.4998 59.6306 19.7424C59.9478 19.9849 60.3583 20.1156 60.8994 20.1156C61.4031 20.1156 61.8696 19.9849 62.2801 19.7424C62.6905 19.4998 63.0077 19.108 63.1943 18.5856L63.8287 20.2835C63.5861 21.1977 63.101 21.8881 62.4107 22.3358C61.7203 22.7836 60.7688 23.0262 59.612 23.0262ZM63.5115 22.8023V20.3394L63.1943 19.7237V15.1898C63.1943 14.4622 62.9704 13.9024 62.5226 13.492C62.0748 13.1001 61.3658 12.8949 60.3956 12.8949C59.7612 12.8949 59.1269 12.9882 58.4738 13.1934C57.8208 13.3987 57.2797 13.6785 56.8133 14.033L55.246 10.8798C55.9923 10.3947 56.8879 10.0216 57.9328 9.7417C58.9776 9.48049 60.0224 9.34988 61.0673 9.34988C63.213 9.34988 64.8735 9.83499 66.049 10.8239C67.2244 11.8127 67.8215 13.3427 67.8215 15.4511V22.7836H63.5115V22.8023Z" fill="white"/>
<path d="M77.8594 23.0262C76.2921 23.0262 74.9301 22.7276 73.7733 22.1306C72.6165 21.5335 71.7022 20.7312 71.0679 19.6864C70.4335 18.6602 70.0977 17.4847 70.0977 16.16C70.0977 14.8353 70.4148 13.6785 71.0306 12.6336C71.6649 11.6075 72.5232 10.8052 73.624 10.2268C74.7248 9.64837 75.9749 9.3685 77.3556 9.3685C78.6617 9.3685 79.8371 9.62971 80.9193 10.1521C81.9828 10.6746 82.8411 11.4582 83.4754 12.4844C84.1098 13.5106 84.427 14.7607 84.427 16.216C84.427 16.3839 84.427 16.5705 84.4083 16.7757C84.3897 16.981 84.371 17.1862 84.3524 17.3541H73.8852V14.9099H81.8895L80.1357 15.6003C80.1357 15.0032 80.0424 14.4808 79.7998 14.033C79.5573 13.5852 79.2401 13.2494 78.8296 13.0068C78.4191 12.7642 77.934 12.6336 77.3743 12.6336C76.8145 12.6336 76.3294 12.7642 75.9189 13.0068C75.5085 13.2494 75.1913 13.6039 74.9487 14.0517C74.7248 14.4995 74.6129 15.0219 74.6129 15.6189V16.3279C74.6129 16.981 74.7435 17.5407 75.0234 18.0071C75.2846 18.4736 75.6764 18.8468 76.1802 19.0893C76.6839 19.3319 77.281 19.4625 77.99 19.4625C78.643 19.4625 79.2028 19.3692 79.6692 19.1826C80.1357 18.996 80.5834 18.7161 81.0499 18.3243L83.4941 20.8618C82.8597 21.5708 82.0761 22.0932 81.1618 22.4664C80.2289 22.8396 79.1468 23.0075 77.878 23.0075L77.8594 23.0262Z" fill="white"/>
<path d="M91.3864 23.0262C90.267 23.0262 89.1661 22.8955 88.1026 22.6343C87.0391 22.3731 86.1809 22.0559 85.5278 21.6641L86.9085 18.4923C87.5242 18.8654 88.2519 19.1639 89.0729 19.3878C89.8938 19.6117 90.7148 19.7237 91.5171 19.7237C92.3193 19.7237 92.8418 19.6491 93.1403 19.4811C93.4388 19.3132 93.5881 19.0893 93.5881 18.8281C93.5881 18.5669 93.4388 18.3803 93.159 18.2497C92.8791 18.1191 92.5059 18.0258 92.0395 17.9698C91.573 17.8952 91.0693 17.8392 90.5095 17.7459C89.9498 17.6713 89.4087 17.5594 88.8303 17.4101C88.2519 17.2608 87.7481 17.0556 87.3003 16.7757C86.8339 16.4959 86.4607 16.104 86.1995 15.6189C85.9197 15.1338 85.789 14.5181 85.789 13.7718C85.789 12.9322 86.0316 12.1672 86.5354 11.5142C87.0391 10.8611 87.7668 10.3387 88.7184 9.94689C89.6699 9.57373 90.8454 9.3685 92.2261 9.3685C93.159 9.3685 94.0919 9.46179 95.0434 9.64837C95.995 9.83495 96.7973 10.1148 97.4503 10.488L96.0696 13.6412C95.4166 13.268 94.7635 13.0068 94.1105 12.8762C93.4575 12.7456 92.8418 12.671 92.2634 12.671C91.4797 12.671 90.9387 12.7642 90.6215 12.9322C90.3043 13.1187 90.155 13.324 90.155 13.5852C90.155 13.8464 90.2856 14.0517 90.5655 14.1823C90.8454 14.3129 91.2185 14.4248 91.6663 14.4994C92.1328 14.5741 92.6365 14.6487 93.1963 14.7233C93.756 14.798 94.2971 14.9099 94.8755 15.0592C95.4352 15.2084 95.9577 15.4137 96.4054 15.7122C96.8719 15.9921 97.2451 16.3839 97.5063 16.8504C97.7861 17.3355 97.9167 17.9512 97.9167 18.6975C97.9167 19.5184 97.6742 20.2461 97.1704 20.8991C96.6667 21.5522 95.939 22.0746 94.9688 22.4664C93.9986 22.8582 92.8045 23.0448 91.3678 23.0448L91.3864 23.0262Z" fill="white"/>
<path d="M98.5326 13.5479V10.0775H108.123V13.5479H98.5326ZM105.828 23.0262C104.13 23.0262 102.824 22.6157 101.872 21.7761C100.921 20.9365 100.454 19.6677 100.454 17.9885V6.64447H105.082V17.9325C105.082 18.399 105.212 18.7722 105.473 19.0334C105.735 19.2946 106.07 19.4439 106.481 19.4439C107.041 19.4439 107.507 19.3132 107.899 19.0334L109.037 22.2799C108.645 22.5411 108.16 22.7277 107.6 22.8583C107.041 22.9889 106.444 23.0448 105.828 23.0448V23.0262Z" fill="white"/>
<path d="M110.828 22.8023V9.59243H115.25V13.436L114.597 12.3352C114.989 11.3463 115.623 10.6 116.5 10.0962C117.377 9.59244 118.441 9.34988 119.691 9.34988V13.5106C119.485 13.4733 119.299 13.4547 119.15 13.4547C119 13.4547 118.832 13.4547 118.646 13.4547C117.694 13.4547 116.948 13.7159 116.351 14.2196C115.772 14.7234 115.474 15.563 115.474 16.7198V22.7836H110.847L110.828 22.8023Z" fill="white"/>
<path d="M128.087 23.0262C126.631 23.0262 125.363 22.7277 124.243 22.1493C123.124 21.5709 122.247 20.7499 121.594 19.7237C120.959 18.6975 120.624 17.5034 120.624 16.1787C120.624 14.854 120.941 13.6599 121.594 12.6524C122.228 11.6262 123.124 10.8239 124.243 10.2455C125.363 9.66708 126.65 9.38721 128.087 9.38721C129.523 9.38721 130.829 9.66708 131.949 10.2455C133.087 10.8239 133.964 11.6262 134.598 12.6524C135.233 13.6785 135.55 14.854 135.55 16.1787C135.55 17.5034 135.233 18.6975 134.598 19.7237C133.964 20.7499 133.087 21.5709 131.949 22.1493C130.811 22.7277 129.523 23.0262 128.087 23.0262ZM128.087 19.3506C128.628 19.3506 129.094 19.22 129.505 18.9774C129.915 18.7349 130.251 18.3804 130.494 17.8952C130.736 17.4101 130.867 16.8504 130.867 16.1787C130.867 15.507 130.755 14.9473 130.494 14.4808C130.232 14.0144 129.915 13.6599 129.505 13.4173C129.094 13.1748 128.609 13.0442 128.087 13.0442C127.564 13.0442 127.098 13.1748 126.687 13.4173C126.277 13.6599 125.941 14.0144 125.68 14.4808C125.419 14.9473 125.307 15.507 125.307 16.1787C125.307 16.8504 125.437 17.4288 125.68 17.8952C125.922 18.3617 126.258 18.7349 126.687 18.9774C127.117 19.22 127.564 19.3506 128.087 19.3506Z" fill="white"/>
<path d="M139.319 22.8023V5.73019H140.009L148.051 19.705H147.678L155.682 5.73019H156.372V22.8023H155.589V6.96163H155.831L148.069 20.4514H147.622L139.823 6.96163H140.121V22.8023H139.319Z" fill="white"/>
<path d="M165.571 22.8769C164.619 22.8769 163.798 22.7276 163.126 22.4291C162.455 22.1306 161.932 21.7201 161.578 21.179C161.223 20.6379 161.037 20.0222 161.037 19.3132C161.037 18.6975 161.186 18.1191 161.485 17.5967C161.783 17.0742 162.268 16.6451 162.94 16.3279C163.612 16.0107 164.526 15.8615 165.664 15.8615H170.571V16.5145H165.664C164.283 16.5145 163.294 16.7757 162.735 17.2981C162.156 17.8206 161.876 18.4736 161.876 19.2759C161.876 20.1715 162.212 20.8805 162.884 21.4029C163.556 21.9253 164.47 22.1865 165.664 22.1865C166.858 22.1865 167.81 21.9253 168.575 21.4029C169.34 20.8805 169.918 20.1155 170.31 19.1453L170.571 19.6864C170.254 20.6379 169.657 21.4216 168.817 22C167.978 22.5784 166.914 22.8769 165.627 22.8769H165.571ZM170.272 22.8023V19.4065L170.254 14.6114C170.254 13.3613 169.918 12.4098 169.246 11.7567C168.575 11.1037 167.604 10.7865 166.336 10.7865C165.403 10.7865 164.563 10.9358 163.798 11.253C163.033 11.5701 162.38 11.9806 161.82 12.4844L161.373 11.906C161.97 11.3462 162.716 10.8798 163.593 10.5626C164.47 10.2268 165.384 10.0588 166.354 10.0588C167.866 10.0588 169.022 10.4507 169.825 11.2156C170.627 11.9806 171.037 13.1188 171.037 14.6114V22.8023H170.254H170.272Z" fill="white"/>
<path d="M176.318 22.8023V10.1521H177.101V13.6412L177.027 13.4173C177.362 12.3538 177.96 11.5328 178.818 10.9358C179.676 10.3387 180.74 10.0402 182.027 10.0402V10.8425H181.803C180.348 10.8425 179.191 11.3089 178.37 12.2418C177.549 13.1747 177.12 14.4435 177.12 16.0667V22.8023H176.318Z" fill="white"/>
<path d="M189.341 22.8023L183.557 10.1522H184.434L189.919 22.3172H189.546L195.05 10.1522H195.908L190.124 22.8023H189.322H189.341Z" fill="white"/>
<defs>
<linearGradient id="paint0_linear_1191_1647" x1="10.8415" y1="0.22046" x2="10.8415" y2="30.5704" gradientUnits="userSpaceOnUse">
<stop stop-color="#01CBF9"/>
<stop offset="1" stop-color="#028EED"/>
</linearGradient>
</defs>
</svg>
